<svg width="452" height="455" viewBox="0 0 452 455" fill="none" xmlns="http://www.w3.org/2000/svg">
<path d="M156.178 305.316L79.2363 234.495L383.504 168.92L299.568 305.316" stroke="#C8CCD3" stroke-width="1.5" stroke-dasharray="3 3"/>
<path d="M369.272 326.643C369.272 331.289 365.975 335.935 359.468 340.339C352.995 344.72 343.563 348.704 331.818 352.066C308.342 358.787 275.852 362.956 239.923 362.956C203.995 362.956 171.504 358.787 148.028 352.066C136.283 348.704 126.852 344.72 120.379 340.339C113.872 335.935 110.575 331.289 110.575 326.643C110.575 321.998 113.872 317.351 120.379 312.947C126.852 308.567 136.283 304.582 148.028 301.22C171.504 294.5 203.995 290.33 239.923 290.33C275.852 290.33 308.342 294.5 331.818 301.22C343.563 304.582 352.995 308.567 359.468 312.947C365.975 317.351 369.272 321.998 369.272 326.643Z" fill="url(#paint0_linear_131_619)" stroke="url(#paint1_linear_131_619)" stroke-width="2"/>
<path d="M213.069 300.886C213.069 290.47 204.626 282.027 194.211 282.027C183.796 282.027 175.353 290.47 175.353 300.886C175.353 311.301 183.796 319.744 194.211 319.744C204.626 319.744 213.069 311.301 213.069 300.886Z" fill="#9FA7B6"/>
<path d="M177.542 282.883C173.4 286.63 173.668 294.902 173.668 300.918C173.668 306.83 173.524 314.807 177.542 318.545C181.211 321.958 188.792 321.398 194.205 321.398C199.619 321.398 206.783 321.958 210.452 318.545C214.47 314.807 214.743 306.83 214.743 300.918C214.743 295.474 215.153 287.774 211.678 284.106C207.934 280.153 200.088 280.438 194.205 280.438C188.896 280.438 181.188 279.586 177.542 282.883Z" fill="url(#paint2_linear_131_619)"/>
<path d="M178.873 304.201L180.135 297.103H182.198L181.219 302.648H184.291L184.009 304.201H178.873Z" fill="white"/>
<path d="M192.414 300.777C192.276 301.548 192.001 302.195 191.59 302.717C191.18 303.239 190.681 303.633 190.095 303.899C189.508 304.165 188.881 304.298 188.213 304.298C187.501 304.298 186.882 304.153 186.358 303.864C185.833 303.576 185.451 303.153 185.211 302.596C184.971 302.039 184.923 301.359 185.066 300.555C185.2 299.783 185.472 299.134 185.883 298.607C186.293 298.08 186.794 297.682 187.386 297.411C187.977 297.141 188.609 297.006 189.282 297.006C189.99 297.006 190.604 297.151 191.126 297.443C191.651 297.734 192.032 298.16 192.269 298.721C192.509 299.283 192.558 299.968 192.414 300.777ZM190.336 300.555C190.405 300.148 190.41 299.806 190.351 299.529C190.291 299.249 190.167 299.039 189.976 298.898C189.786 298.755 189.529 298.683 189.208 298.683C188.842 298.683 188.518 298.766 188.236 298.933C187.954 299.099 187.72 299.338 187.534 299.65C187.349 299.962 187.219 300.338 187.145 300.777C187.065 301.188 187.058 301.53 187.122 301.802C187.189 302.075 187.32 302.279 187.516 302.416C187.714 302.552 187.971 302.62 188.288 302.62C188.649 302.62 188.968 302.539 189.245 302.378C189.525 302.216 189.756 301.981 189.939 301.674C190.124 301.367 190.257 300.994 190.336 300.555Z" fill="white"/>
<path d="M195.625 304.201H192.656L193.917 297.103H196.768C197.549 297.103 198.202 297.25 198.727 297.543C199.251 297.836 199.624 298.256 199.844 298.801C200.064 299.346 200.107 299.996 199.974 300.749C199.845 301.474 199.584 302.095 199.191 302.61C198.8 303.125 198.3 303.519 197.692 303.792C197.085 304.064 196.396 304.201 195.625 304.201ZM195.009 302.565H195.758C196.134 302.565 196.469 302.504 196.764 302.381C197.061 302.256 197.308 302.048 197.506 301.757C197.706 301.464 197.851 301.063 197.94 300.555C198.024 300.074 198.022 299.703 197.933 299.442C197.844 299.179 197.674 298.996 197.424 298.895C197.175 298.791 196.852 298.739 196.456 298.739H195.691L195.009 302.565Z" fill="white"/>
<path d="M203.54 297.103L202.279 304.201H200.215L201.477 297.103H203.54Z" fill="white"/>
<path d="M208.11 299.321C208.132 299.092 208.073 298.913 207.932 298.784C207.791 298.652 207.553 298.586 207.219 298.586C207.007 298.586 206.828 298.609 206.685 298.656C206.544 298.702 206.434 298.765 206.355 298.846C206.278 298.927 206.23 299.021 206.21 299.127C206.188 299.21 206.189 299.286 206.214 299.356C206.241 299.423 206.292 299.484 206.366 299.539C206.443 299.595 206.543 299.644 206.666 299.688C206.793 299.732 206.942 299.771 207.115 299.806L207.709 299.931C208.115 300.014 208.455 300.124 208.73 300.26C209.007 300.394 209.225 300.554 209.383 300.738C209.541 300.923 209.645 301.13 209.695 301.359C209.747 301.588 209.748 301.837 209.698 302.107C209.614 302.574 209.42 302.969 209.116 303.293C208.811 303.616 208.414 303.862 207.924 304.031C207.435 304.199 206.868 304.284 206.225 304.284C205.567 304.284 205.008 304.193 204.547 304.01C204.09 303.825 203.758 303.543 203.553 303.164C203.35 302.783 203.301 302.297 203.404 301.705H205.364C205.334 301.923 205.359 302.105 205.438 302.253C205.517 302.401 205.645 302.513 205.82 302.589C205.996 302.665 206.215 302.703 206.477 302.703C206.7 302.703 206.89 302.678 207.049 302.627C207.207 302.576 207.332 302.506 207.423 302.416C207.515 302.326 207.571 302.223 207.59 302.107C207.61 302.001 207.59 301.906 207.531 301.823C207.472 301.74 207.364 301.665 207.208 301.598C207.052 301.531 206.838 301.47 206.566 301.414L205.839 301.262C205.193 301.123 204.706 300.894 204.377 300.576C204.048 300.257 203.931 299.82 204.028 299.265C204.107 298.813 204.306 298.418 204.625 298.08C204.947 297.741 205.355 297.477 205.85 297.29C206.347 297.101 206.898 297.006 207.501 297.006C208.115 297.006 208.628 297.102 209.041 297.294C209.457 297.485 209.755 297.754 209.936 298.101C210.119 298.448 210.168 298.854 210.084 299.321H208.11Z" fill="white"/>
<path d="M171.975 300.886C171.975 290.47 163.532 282.027 153.117 282.027C142.702 282.027 134.259 290.47 134.259 300.886C134.259 311.301 142.702 319.744 153.117 319.744C163.532 319.744 171.975 311.301 171.975 300.886Z" fill="#9FA7B6"/>
<path d="M136.449 282.883C132.306 286.63 132.574 294.902 132.574 300.918C132.574 306.83 132.43 314.807 136.449 318.545C140.117 321.958 147.698 321.398 153.112 321.398C158.525 321.398 165.689 321.958 169.358 318.545C173.376 314.807 173.649 306.83 173.649 300.918C173.649 295.474 174.059 287.774 170.584 284.106C166.84 280.153 158.995 280.438 153.112 280.438C147.802 280.438 140.094 279.586 136.449 282.883Z" fill="url(#paint3_linear_131_619)"/>
<path d="M137.78 304.201L139.041 297.103H141.105L140.125 302.648H143.198L142.916 304.201H137.78Z" fill="white"/>
<path d="M151.32 300.777C151.182 301.548 150.907 302.195 150.497 302.717C150.086 303.239 149.587 303.633 149.001 303.899C148.415 304.165 147.788 304.298 147.12 304.298C146.407 304.298 145.789 304.153 145.264 303.864C144.74 303.576 144.357 303.153 144.117 302.596C143.877 302.039 143.829 301.359 143.973 300.555C144.106 299.783 144.378 299.134 144.789 298.607C145.2 298.08 145.701 297.682 146.292 297.411C146.883 297.141 147.515 297.006 148.188 297.006C148.896 297.006 149.511 297.151 150.033 297.443C150.557 297.734 150.938 298.16 151.176 298.721C151.416 299.283 151.464 299.968 151.32 300.777ZM149.242 300.555C149.312 300.148 149.316 299.806 149.257 299.529C149.198 299.249 149.073 299.039 148.882 298.898C148.692 298.755 148.436 298.683 148.114 298.683C147.748 298.683 147.424 298.766 147.142 298.933C146.86 299.099 146.626 299.338 146.44 299.65C146.255 299.962 146.125 300.338 146.051 300.777C145.972 301.188 145.964 301.53 146.029 301.802C146.095 302.075 146.226 302.279 146.422 302.416C146.62 302.552 146.877 302.62 147.194 302.62C147.555 302.62 147.874 302.539 148.151 302.378C148.431 302.216 148.662 301.981 148.845 301.674C149.031 301.367 149.163 300.994 149.242 300.555Z" fill="white"/>
<path d="M154.531 304.201H151.562L152.824 297.103H155.674C156.456 297.103 157.109 297.25 157.633 297.543C158.158 297.836 158.53 298.256 158.75 298.801C158.97 299.346 159.014 299.996 158.88 300.749C158.751 301.474 158.49 302.095 158.097 302.61C157.706 303.125 157.206 303.519 156.598 303.792C155.992 304.064 155.303 304.201 154.531 304.201ZM153.915 302.565H154.664C155.04 302.565 155.376 302.504 155.67 302.381C155.967 302.256 156.214 302.048 156.412 301.757C156.613 301.464 156.757 301.063 156.846 300.555C156.931 300.074 156.928 299.703 156.839 299.442C156.75 299.179 156.581 298.996 156.331 298.895C156.081 298.791 155.758 298.739 155.362 298.739H154.598L153.915 302.565Z" fill="white"/>
<path d="M162.447 297.103L161.185 304.201H159.122L160.383 297.103H162.447Z" fill="white"/>
<path d="M167.016 299.321C167.039 299.092 166.979 298.913 166.838 298.784C166.697 298.652 166.46 298.586 166.126 298.586C165.913 298.586 165.735 298.609 165.591 298.656C165.45 298.702 165.34 298.765 165.261 298.846C165.184 298.927 165.136 299.021 165.116 299.127C165.094 299.21 165.095 299.286 165.12 299.356C165.147 299.423 165.198 299.484 165.272 299.539C165.349 299.595 165.449 299.644 165.573 299.688C165.699 299.732 165.849 299.771 166.022 299.806L166.615 299.931C167.021 300.014 167.361 300.124 167.636 300.26C167.913 300.394 168.131 300.554 168.289 300.738C168.447 300.923 168.551 301.13 168.601 301.359C168.653 301.588 168.654 301.837 168.605 302.107C168.52 302.574 168.326 302.969 168.022 303.293C167.718 303.616 167.321 303.862 166.831 304.031C166.341 304.199 165.774 304.284 165.131 304.284C164.473 304.284 163.914 304.193 163.454 304.01C162.996 303.825 162.664 303.543 162.459 303.164C162.256 302.783 162.207 302.297 162.311 301.705H164.27C164.24 301.923 164.265 302.105 164.344 302.253C164.423 302.401 164.551 302.513 164.727 302.589C164.902 302.665 165.121 302.703 165.383 302.703C165.606 302.703 165.797 302.678 165.955 302.627C166.113 302.576 166.238 302.506 166.33 302.416C166.421 302.326 166.477 302.223 166.497 302.107C166.517 302.001 166.497 301.906 166.437 301.823C166.378 301.74 166.27 301.665 166.114 301.598C165.959 301.531 165.745 301.47 165.472 301.414L164.745 301.262C164.099 301.123 163.612 300.894 163.283 300.576C162.954 300.257 162.838 299.82 162.934 299.265C163.013 298.813 163.212 298.418 163.532 298.08C163.853 297.741 164.261 297.477 164.756 297.29C165.254 297.101 165.804 297.006 166.408 297.006C167.021 297.006 167.535 297.102 167.948 297.294C168.363 297.485 168.661 297.754 168.842 298.101C169.025 298.448 169.075 298.854 168.991 299.321H167.016Z" fill="white"/>
<path d="M193.891 261.162C193.891 250.747 185.448 242.304 175.033 242.304C164.618 242.304 156.175 250.747 156.175 261.162C156.175 271.577 164.618 280.02 175.033 280.02C185.448 280.02 193.891 271.577 193.891 261.162Z" fill="#9FA7B6"/>
<path d="M158.365 243.159C154.222 246.906 154.49 255.178 154.49 261.194C154.49 267.107 154.347 275.083 158.365 278.821C162.034 282.235 169.614 281.674 175.028 281.674C180.442 281.674 187.605 282.235 191.274 278.821C195.292 275.083 195.566 267.107 195.566 261.194C195.566 255.75 195.975 248.05 192.5 244.382C188.756 240.429 180.911 240.714 175.028 240.714C169.718 240.714 162.01 239.862 158.365 243.159Z" fill="url(#paint4_linear_131_619)"/>
<path d="M159.696 264.477L160.958 257.379H163.021L162.041 262.924H165.114L164.832 264.477H159.696Z" fill="white"/>
<path d="M173.237 261.053C173.098 261.824 172.824 262.471 172.413 262.993C172.002 263.516 171.504 263.91 170.917 264.175C170.331 264.441 169.704 264.574 169.036 264.574C168.323 264.574 167.705 264.429 167.18 264.141C166.656 263.852 166.274 263.429 166.034 262.872C165.794 262.315 165.745 261.635 165.889 260.831C166.022 260.059 166.295 259.41 166.705 258.883C167.116 258.356 167.617 257.958 168.208 257.687C168.8 257.417 169.432 257.282 170.105 257.282C170.812 257.282 171.427 257.428 171.949 257.719C172.473 258.01 172.854 258.436 173.092 258.998C173.332 259.559 173.38 260.244 173.237 261.053ZM171.159 260.831C171.228 260.424 171.233 260.082 171.173 259.805C171.114 259.525 170.989 259.315 170.799 259.174C170.608 259.031 170.352 258.959 170.03 258.959C169.664 258.959 169.34 259.043 169.058 259.209C168.776 259.375 168.542 259.614 168.357 259.926C168.171 260.238 168.041 260.614 167.967 261.053C167.888 261.464 167.88 261.806 167.945 262.079C168.012 262.351 168.143 262.556 168.338 262.692C168.536 262.828 168.793 262.896 169.11 262.896C169.471 262.896 169.79 262.816 170.067 262.654C170.347 262.492 170.578 262.258 170.761 261.95C170.947 261.643 171.079 261.27 171.159 260.831Z" fill="white"/>
<path d="M176.447 264.477H173.478L174.74 257.379H177.59C178.372 257.379 179.025 257.526 179.549 257.819C180.074 258.113 180.446 258.532 180.666 259.077C180.887 259.622 180.93 260.272 180.796 261.025C180.668 261.75 180.407 262.371 180.013 262.886C179.622 263.401 179.123 263.795 178.514 264.068C177.908 264.34 177.219 264.477 176.447 264.477ZM175.831 262.841H176.581C176.957 262.841 177.292 262.78 177.586 262.657C177.883 262.533 178.131 262.325 178.329 262.033C178.529 261.74 178.674 261.339 178.763 260.831C178.847 260.35 178.844 259.979 178.755 259.718C178.666 259.455 178.497 259.272 178.247 259.171C177.997 259.067 177.674 259.015 177.278 259.015H176.514L175.831 262.841Z" fill="white"/>
<path d="M184.363 257.379L183.101 264.477H181.038L182.3 257.379H184.363Z" fill="white"/>
<path d="M188.933 259.597C188.955 259.368 188.895 259.189 188.754 259.06C188.613 258.928 188.376 258.862 188.042 258.862C187.829 258.862 187.651 258.885 187.507 258.932C187.366 258.978 187.256 259.041 187.177 259.122C187.101 259.203 187.052 259.297 187.032 259.403C187.01 259.486 187.011 259.562 187.036 259.632C187.063 259.699 187.114 259.76 187.188 259.815C187.265 259.871 187.365 259.921 187.489 259.964C187.615 260.008 187.765 260.048 187.938 260.082L188.532 260.207C188.937 260.29 189.278 260.4 189.552 260.536C189.829 260.67 190.047 260.83 190.205 261.015C190.364 261.199 190.468 261.406 190.517 261.635C190.569 261.864 190.57 262.113 190.521 262.383C190.437 262.85 190.243 263.245 189.938 263.569C189.634 263.892 189.237 264.138 188.747 264.307C188.257 264.476 187.691 264.56 187.047 264.56C186.389 264.56 185.83 264.469 185.37 264.286C184.912 264.101 184.581 263.819 184.375 263.441C184.173 263.059 184.123 262.573 184.227 261.981H186.186C186.157 262.199 186.181 262.381 186.261 262.529C186.34 262.677 186.467 262.789 186.643 262.865C186.818 262.941 187.037 262.98 187.3 262.98C187.522 262.98 187.713 262.954 187.871 262.903C188.03 262.853 188.154 262.782 188.246 262.692C188.338 262.602 188.393 262.499 188.413 262.383C188.433 262.277 188.413 262.182 188.354 262.099C188.294 262.016 188.187 261.941 188.031 261.874C187.875 261.807 187.661 261.746 187.389 261.69L186.661 261.538C186.016 261.399 185.528 261.17 185.199 260.852C184.87 260.533 184.754 260.096 184.85 259.542C184.93 259.089 185.129 258.694 185.448 258.356C185.769 258.017 186.178 257.753 186.673 257.566C187.17 257.377 187.72 257.282 188.324 257.282C188.937 257.282 189.451 257.378 189.864 257.57C190.28 257.761 190.578 258.031 190.758 258.377C190.941 258.724 190.991 259.13 190.907 259.597H188.933Z" fill="white"/>
<g filter="url(#filter0_b_131_619)">
<path d="M327.383 199.884C316.15 257.969 268.83 301.303 248.872 317.337C243.658 321.523 236.347 321.626 231.124 317.44C208.489 299.28 150.057 245.55 150.057 174.897C150.057 124.969 190.731 84.5379 240.747 84.9875C299.197 85.5026 338.485 142.464 327.383 199.874V199.884Z" fill="#1F2637"/>
<g style="mix-blend-mode:screen" opacity="0.9">
<path d="M239.932 88.0223H240.719C265.825 88.2471 288.563 99.2797 304.758 119.088C322.562 140.872 329.911 170.86 324.416 199.304C313.37 256.415 266.583 299.224 246.981 314.977C244.95 316.607 242.432 317.506 239.886 317.506C237.339 317.506 234.999 316.672 233.024 315.08C208.994 295.797 153.09 243.537 153.09 174.906C153.09 127.002 192.051 88.0223 239.932 88.0223ZM239.932 84.9879C190.3 84.9879 150.057 125.241 150.057 174.906C150.057 245.56 208.489 299.29 231.124 317.45C233.698 319.52 236.787 320.54 239.876 320.54C242.965 320.54 246.223 319.463 248.863 317.347C268.821 301.304 316.15 257.969 327.374 199.894C338.476 142.483 299.178 85.5218 240.737 85.0066C240.466 85.0066 240.195 85.0066 239.923 85.0066L239.932 84.9879Z" fill="#111827"/>
</g>
<path d="M291.283 166.561C295.887 194.935 276.628 221.669 248.269 226.275C219.911 230.88 193.189 211.613 188.585 183.24C183.982 154.866 203.24 128.132 231.599 123.527C259.958 118.921 286.68 138.188 291.283 166.561Z" fill="white" stroke="#334465" stroke-width="2"/>
</g>
<path d="M78.5585 251.186C105.708 251.186 127.718 244.886 127.718 237.114C127.718 229.342 105.708 223.042 78.5585 223.042C51.4087 223.042 29.3994 229.342 29.3994 237.114C29.3994 244.886 51.4087 251.186 78.5585 251.186Z" fill="url(#paint5_linear_131_619)"/>
<g filter="url(#filter1_b_131_619)">
<g opacity="0.45">
<path d="M105.198 200.392C101.779 218.07 87.3775 231.258 81.3035 236.138C79.7166 237.412 77.4916 237.444 75.9019 236.17C69.013 230.643 51.2297 214.29 51.2297 192.787C51.2297 177.592 63.6085 165.287 78.8306 165.424C96.6196 165.581 108.577 182.917 105.198 200.389V200.392Z" fill="#9FA7B6"/>
</g>
<g style="mix-blend-mode:soft-light" opacity="0.5">
<path d="M105.198 200.392C101.779 218.07 87.3775 231.258 81.3035 236.138C79.7166 237.412 77.4916 237.444 75.9019 236.17C69.013 230.643 51.2297 214.29 51.2297 192.787C51.2297 177.592 63.6085 165.287 78.8306 165.424C96.6196 165.581 108.577 182.917 105.198 200.389V200.392Z" fill="url(#paint6_linear_131_619)"/>
</g>
<g style="mix-blend-mode:screen" opacity="0.5">
<path d="M78.5828 166.347H78.8221C86.463 166.416 93.3832 169.773 98.3119 175.802C103.731 182.432 105.967 191.558 104.295 200.215C100.933 217.596 86.6938 230.625 80.728 235.419C80.1098 235.915 79.3434 236.189 78.5685 236.189C77.7936 236.189 77.0813 235.935 76.4802 235.451C69.1669 229.582 52.1528 213.677 52.1528 192.79C52.1528 178.21 64.0102 166.347 78.5828 166.347ZM78.5828 165.424C63.4775 165.424 51.2297 177.674 51.2297 192.79C51.2297 214.293 69.013 230.645 75.9019 236.172C76.6853 236.802 77.6255 237.113 78.5657 237.113C79.5058 237.113 80.4973 236.785 81.3007 236.141C87.3747 231.258 101.779 218.069 105.195 200.394C108.574 182.922 96.6139 165.586 78.8278 165.429C78.7451 165.429 78.6625 165.429 78.5799 165.429L78.5828 165.424Z" fill="#6B7280"/>
</g>
<path d="M93.5252 190.362C94.8648 198.618 89.2608 206.397 81.0095 207.737C72.7582 209.077 64.9827 203.471 63.6431 195.215C62.3036 186.959 67.9075 179.18 76.1588 177.84C84.4101 176.5 92.1857 182.106 93.5252 190.362Z" fill="white" stroke="url(#paint7_linear_131_619)" stroke-width="2"/>
</g>
<path d="M386.046 179.491C408.213 179.491 426.184 174.347 426.184 168.001C426.184 161.656 408.213 156.512 386.046 156.512C363.878 156.512 345.908 161.656 345.908 168.001C345.908 174.347 363.878 179.491 386.046 179.491Z" fill="url(#paint8_linear_131_619)"/>
<g filter="url(#filter2_b_131_619)">
<g opacity="0.45">
<path d="M407.797 138.018C405.006 152.452 393.247 163.22 388.288 167.204C386.992 168.245 385.175 168.27 383.877 167.23C378.253 162.717 363.733 149.366 363.733 131.808C363.733 119.402 373.84 109.355 386.269 109.466C400.793 109.594 410.556 123.749 407.797 138.015V138.018Z" fill="#9FA7B6"/>
</g>
<g style="mix-blend-mode:soft-light" opacity="0.5">
<path d="M407.797 138.018C405.006 152.452 393.247 163.22 388.288 167.204C386.992 168.245 385.175 168.27 383.877 167.23C378.253 162.717 363.733 149.366 363.733 131.808C363.733 119.402 373.84 109.355 386.269 109.466C400.793 109.594 410.556 123.749 407.797 138.015V138.018Z" fill="url(#paint9_linear_131_619)"/>
</g>
<g style="mix-blend-mode:screen" opacity="0.5">
<path d="M386.066 110.221H386.262C392.5 110.276 398.151 113.018 402.175 117.94C406.599 123.353 408.425 130.805 407.06 137.873C404.315 152.065 392.689 162.703 387.818 166.618C387.313 167.023 386.687 167.246 386.055 167.246C385.422 167.246 384.84 167.039 384.35 166.643C378.378 161.852 364.486 148.865 364.486 131.811C364.486 119.907 374.168 110.221 386.066 110.221ZM386.066 109.467C373.733 109.467 363.733 119.469 363.733 131.811C363.733 149.368 378.253 162.72 383.877 167.232C384.517 167.747 385.285 168 386.052 168C386.82 168 387.629 167.733 388.285 167.207C393.245 163.22 405.006 152.452 407.795 138.02C410.554 123.754 400.789 109.599 386.266 109.471C386.199 109.471 386.131 109.471 386.064 109.471L386.066 109.467Z" fill="#6B7280"/>
</g>
<path d="M398.086 129.858C399.163 136.499 394.655 142.756 388.018 143.834C381.381 144.912 375.127 140.403 374.049 133.761C372.972 127.12 377.48 120.863 384.117 119.785C390.754 118.707 397.008 123.216 398.086 129.858Z" fill="white" stroke="url(#paint10_linear_131_619)" stroke-width="2"/>
</g>
<path d="M197.271 184.378L200.66 163.953H206.202L203.571 179.91H211.824L211.066 184.378H197.271Z" fill="#374051"/>
<path d="M233.641 174.525C233.268 176.745 232.531 178.607 231.428 180.11C230.325 181.612 228.986 182.746 227.411 183.511C225.836 184.275 224.152 184.658 222.358 184.658C220.444 184.658 218.783 184.242 217.374 183.411C215.965 182.58 214.938 181.363 214.294 179.761C213.649 178.158 213.52 176.2 213.905 173.886C214.264 171.666 214.995 169.797 216.098 168.281C217.201 166.765 218.547 165.619 220.135 164.841C221.723 164.063 223.421 163.674 225.228 163.674C227.129 163.674 228.78 164.093 230.182 164.93C231.591 165.768 232.614 166.995 233.252 168.611C233.896 170.226 234.026 172.198 233.641 174.525ZM228.059 173.886C228.245 172.716 228.258 171.732 228.099 170.934C227.939 170.13 227.604 169.525 227.092 169.119C226.58 168.707 225.893 168.501 225.029 168.501C224.045 168.501 223.175 168.74 222.417 169.219C221.66 169.698 221.032 170.386 220.534 171.283C220.035 172.181 219.686 173.261 219.487 174.525C219.274 175.708 219.254 176.692 219.427 177.477C219.607 178.261 219.959 178.85 220.484 179.242C221.015 179.634 221.706 179.831 222.557 179.831C223.527 179.831 224.384 179.598 225.128 179.132C225.879 178.667 226.501 177.992 226.992 177.108C227.491 176.224 227.846 175.15 228.059 173.886Z" fill="#374051"/>
<path d="M242.263 184.378H234.289L237.678 163.953H245.333C247.433 163.953 249.187 164.375 250.596 165.22C252.005 166.064 253.005 167.271 253.596 168.84C254.188 170.409 254.304 172.277 253.945 174.445C253.6 176.533 252.898 178.318 251.842 179.801C250.792 181.283 249.45 182.417 247.815 183.202C246.187 183.986 244.337 184.378 242.263 184.378ZM240.609 179.671H242.622C243.632 179.671 244.533 179.495 245.323 179.142C246.121 178.783 246.785 178.185 247.317 177.347C247.855 176.503 248.244 175.349 248.483 173.886C248.709 172.503 248.702 171.436 248.463 170.685C248.224 169.927 247.769 169.402 247.097 169.109C246.426 168.81 245.559 168.66 244.496 168.66H242.443L240.609 179.671Z" fill="#374051"/>
<path d="M263.525 163.953L260.136 184.378H254.594L257.983 163.953H263.525Z" fill="#374051"/>
<path d="M275.798 170.336C275.858 169.678 275.698 169.162 275.319 168.79C274.941 168.411 274.303 168.222 273.406 168.222C272.834 168.222 272.356 168.288 271.97 168.421C271.592 168.554 271.296 168.737 271.083 168.97C270.877 169.202 270.748 169.472 270.695 169.777C270.635 170.017 270.638 170.236 270.705 170.436C270.778 170.628 270.914 170.805 271.113 170.964C271.319 171.124 271.588 171.267 271.921 171.393C272.259 171.519 272.661 171.632 273.127 171.732L274.721 172.091C275.811 172.331 276.725 172.646 277.462 173.039C278.207 173.424 278.791 173.883 279.217 174.415C279.642 174.947 279.921 175.542 280.054 176.2C280.193 176.859 280.197 177.577 280.064 178.355C279.838 179.698 279.316 180.835 278.499 181.765C277.682 182.696 276.615 183.404 275.299 183.89C273.984 184.375 272.462 184.618 270.734 184.618C268.967 184.618 267.465 184.355 266.229 183.83C265 183.298 264.109 182.487 263.558 181.396C263.013 180.299 262.88 178.9 263.159 177.198H268.422C268.342 177.823 268.409 178.348 268.621 178.773C268.834 179.199 269.176 179.521 269.648 179.741C270.12 179.96 270.708 180.07 271.412 180.07C272.01 180.07 272.522 179.997 272.947 179.851C273.372 179.704 273.708 179.501 273.954 179.242C274.2 178.983 274.349 178.687 274.402 178.355C274.456 178.049 274.402 177.776 274.243 177.537C274.083 177.297 273.794 177.081 273.376 176.888C272.957 176.696 272.382 176.519 271.651 176.36L269.698 175.921C267.963 175.522 266.654 174.864 265.771 173.946C264.887 173.029 264.575 171.772 264.834 170.176C265.046 168.873 265.581 167.736 266.438 166.765C267.302 165.788 268.399 165.03 269.728 164.492C271.063 163.946 272.542 163.674 274.163 163.674C275.811 163.674 277.19 163.95 278.3 164.501C279.416 165.053 280.217 165.828 280.702 166.825C281.194 167.823 281.326 168.993 281.1 170.336H275.798Z" fill="#374051"/>
<path d="M324.17 251.107H279.849C277.401 251.107 275.417 253.091 275.417 255.539V319.488C275.417 321.937 277.401 323.921 279.849 323.921H324.17C326.618 323.921 328.602 321.937 328.602 319.488V255.539C328.602 253.091 326.618 251.107 324.17 251.107Z" fill="url(#paint11_linear_131_619)"/>
<path d="M319.581 270.451H284.534C283.465 270.451 282.598 269.584 282.598 268.514C282.598 267.444 283.465 266.578 284.534 266.578H319.581C320.651 266.578 321.517 267.444 321.517 268.514C321.517 269.584 320.651 270.451 319.581 270.451Z" fill="#374051"/>
<path d="M319.581 282.149H284.534C283.465 282.149 282.598 281.283 282.598 280.213C282.598 279.143 283.465 278.277 284.534 278.277H319.581C320.651 278.277 321.517 279.143 321.517 280.213C321.517 281.283 320.651 282.149 319.581 282.149Z" fill="#374051"/>
<path d="M319.581 293.848H284.534C283.465 293.848 282.598 292.982 282.598 291.912C282.598 290.842 283.465 289.976 284.534 289.976H319.581C320.651 289.976 321.517 290.842 321.517 291.912C321.517 292.982 320.651 293.848 319.581 293.848Z" fill="#374051"/>
<g filter="url(#filter3_b_131_619)">
<g opacity="0.45">
<path d="M307.158 276.743L316.783 326.032C317.252 328.435 315.685 330.763 313.282 331.232L269.785 339.726C267.382 340.195 265.054 338.628 264.585 336.225L252.33 273.464C251.86 271.061 253.428 268.733 255.831 268.264L285.875 262.397L307.158 276.743Z" fill="#9FA7B6"/>
</g>
<g style="mix-blend-mode:soft-light" opacity="0.5">
<path d="M307.158 276.743L316.783 326.032C317.252 328.435 315.685 330.763 313.282 331.232L269.785 339.726C267.382 340.195 265.054 338.628 264.585 336.225L252.33 273.464C251.86 271.061 253.428 268.733 255.831 268.264L285.875 262.397L307.158 276.743Z" fill="url(#paint12_linear_131_619)"/>
</g>
<g style="mix-blend-mode:soft-light" opacity="0.5">
<path d="M306.087 276.954L293.712 279.37C291.307 279.84 288.977 278.273 288.508 275.872L286.086 263.467L306.085 276.954L306.087 276.954Z" fill="url(#paint13_linear_131_619)"/>
</g>
<g style="mix-blend-mode:screen" opacity="0.5">
<path d="M286.989 264.084L288.579 265.154L305.175 276.34L293.557 278.608C291.576 278.995 289.65 277.698 289.264 275.718L286.992 264.083L286.989 264.084ZM285.87 262.396L288.5 275.867C288.97 278.27 291.297 279.837 293.7 279.368L307.153 276.741L289.009 264.511L285.87 262.396Z" fill="url(#paint14_linear_131_619)"/>
</g>
<path d="M300.966 292.345L266.569 299.062C265.519 299.267 264.503 298.583 264.298 297.533C264.093 296.483 264.777 295.467 265.827 295.261L300.224 288.545C301.274 288.34 302.29 289.024 302.495 290.074C302.7 291.124 302.016 292.14 300.966 292.345Z" fill="white"/>
<path d="M303.208 303.828L268.811 310.544C267.761 310.749 266.745 310.065 266.54 309.015C266.335 307.965 267.019 306.949 268.069 306.744L302.466 300.027C303.516 299.822 304.532 300.506 304.737 301.556C304.943 302.606 304.258 303.623 303.208 303.828Z" fill="white"/>
<path d="M305.456 315.309L271.059 322.026C270.009 322.231 268.993 321.547 268.788 320.497C268.583 319.447 269.267 318.43 270.317 318.225L304.714 311.509C305.764 311.303 306.78 311.988 306.985 313.038C307.19 314.088 306.506 315.104 305.456 315.309Z" fill="white"/>
<g style="mix-blend-mode:screen" opacity="0.5">
<path d="M285.708 263.217L306.461 277.206L316.024 326.181C316.411 328.161 315.114 330.087 313.134 330.474L269.637 338.967C267.657 339.354 265.731 338.057 265.344 336.077L253.089 273.316C252.702 271.336 253.999 269.409 255.979 269.023L285.708 263.217ZM285.874 262.395L255.83 268.262C253.427 268.731 251.86 271.059 252.329 273.462L264.585 336.223C265.054 338.626 267.382 340.193 269.785 339.724L313.282 331.23C315.685 330.761 317.252 328.433 316.783 326.03L307.158 276.743L285.875 262.397L285.874 262.395Z" fill="url(#paint15_linear_131_619)"/>
</g>
</g>
<path d="M72.9472 225.314C72.9472 218.888 67.7376 213.678 61.3113 213.678C54.8851 213.678 49.6755 218.888 49.6755 225.314C49.6755 231.74 54.8851 236.95 61.3113 236.95C67.7376 236.95 72.9472 231.74 72.9472 225.314Z" fill="#9FA7B6"/>
<path d="M51.0275 214.206C48.4717 216.518 48.6369 221.622 48.6369 225.334C48.6369 228.982 48.5482 233.904 51.0275 236.21C53.2914 238.316 57.9688 237.971 61.3091 237.971C64.6494 237.971 69.0695 238.316 71.3333 236.21C73.8127 233.904 73.9812 228.982 73.9812 225.334C73.9812 221.975 74.234 217.224 72.0899 214.961C69.7796 212.522 64.9389 212.697 61.3091 212.697C58.033 212.697 53.2769 212.172 51.0275 214.206Z" fill="url(#paint16_linear_131_619)"/>
<path fill-rule="evenodd" clip-rule="evenodd" d="M382.694 299.545C384.493 301.345 384.493 304.262 382.694 306.062C380.894 307.861 377.977 307.861 376.177 306.062L361.011 290.896C359.212 289.096 359.212 286.179 361.011 284.379C362.811 282.58 365.728 282.58 367.528 284.379L382.694 299.545Z" fill="url(#paint17_linear_131_619)"/>
<path fill-rule="evenodd" clip-rule="evenodd" d="M363.215 284.063C363.888 284.736 363.888 285.827 363.215 286.5C362.542 287.174 361.45 287.174 360.777 286.5L357.053 282.776C356.379 282.103 356.379 281.011 357.053 280.338C357.726 279.665 358.817 279.665 359.49 280.338L363.215 284.063Z" fill="url(#paint18_linear_131_619)"/>
<g filter="url(#filter4_b_131_619)">
<g opacity="0.45">
<path d="M339.433 291.871C323.971 291.871 311.435 279.334 311.435 263.872C311.435 248.41 323.971 235.873 339.433 235.873C354.895 235.873 367.432 248.41 367.432 263.872C367.432 279.334 354.895 291.871 339.433 291.871Z" fill="#C8CCD3" stroke="#8A9CBD"/>
</g>
<g style="mix-blend-mode:soft-light" opacity="0.5">
<path d="M339.433 291.871C323.971 291.871 311.435 279.334 311.435 263.872C311.435 248.41 323.971 235.873 339.433 235.873C354.895 235.873 367.432 248.41 367.432 263.872C367.432 279.334 354.895 291.871 339.433 291.871Z" fill="url(#paint19_linear_131_619)" stroke="#8A9CBD"/>
</g>
<g style="mix-blend-mode:screen" opacity="0.5">
<path d="M367.192 263.871C367.192 248.563 354.738 236.112 339.433 236.112C324.125 236.112 311.674 248.563 311.674 263.871C311.674 279.18 324.125 291.631 339.433 291.631C354.742 291.631 367.192 279.18 367.192 263.871ZM311.435 263.868C311.435 248.405 323.971 235.869 339.433 235.869C354.895 235.869 367.432 248.405 367.432 263.868C367.432 279.33 354.895 291.866 339.433 291.866C323.971 291.866 311.435 279.33 311.435 263.868Z" fill="url(#paint20_linear_131_619)" stroke="#8A9CBD"/>
</g>
</g>
<g filter="url(#filter5_b_131_619)">
<path d="M79.1111 124.343C73.6201 124.343 69.1687 119.839 69.1687 114.282C69.1687 108.726 73.6201 104.222 79.1111 104.222C84.6022 104.222 89.0536 108.726 89.0536 114.282C89.0536 119.839 84.6022 124.343 79.1111 124.343Z" fill="#9FA7B6"/>
<path d="M97.3487 141.21C97.3487 148.691 60.8755 148.691 60.8755 141.21C60.8755 133.729 69.0405 127.666 79.1121 127.666C89.1837 127.666 97.3487 133.729 97.3487 141.21Z" fill="#9FA7B6"/>
<g style="mix-blend-mode:soft-light" opacity="0.5">
<path d="M79.1111 124.343C73.6201 124.343 69.1687 119.839 69.1687 114.282C69.1687 108.726 73.6201 104.222 79.1111 104.222C84.6022 104.222 89.0536 108.726 89.0536 114.282C89.0536 119.839 84.6022 124.343 79.1111 124.343Z" fill="url(#paint21_linear_131_619)"/>
<path d="M97.3487 141.21C97.3487 148.691 60.8755 148.691 60.8755 141.21C60.8755 133.729 69.0405 127.666 79.1121 127.666C89.1837 127.666 97.3487 133.729 97.3487 141.21Z" fill="url(#paint22_linear_131_619)"/>
</g>
<g style="mix-blend-mode:screen" opacity="0.5">
<path d="M79.1111 104.729C84.3158 104.729 88.5508 109.015 88.5508 114.281C88.5508 119.548 84.3158 123.833 79.1111 123.833C73.9065 123.833 69.6714 119.548 69.6714 114.281C69.6714 109.015 73.9065 104.729 79.1111 104.729ZM79.1111 104.219C73.6201 104.219 69.1687 108.723 69.1687 114.28C69.1687 119.836 73.6201 124.34 79.1111 124.34C84.6022 124.34 89.0536 119.836 89.0536 114.28C89.0536 108.723 84.6022 104.219 79.1111 104.219Z" fill="url(#paint23_linear_131_619)"/>
<path d="M79.1121 128.173C88.8895 128.173 96.8444 134.021 96.8444 141.209C96.8444 144.116 89.2211 146.31 79.1121 146.31C69.0031 146.31 61.3798 144.117 61.3798 141.209C61.3798 134.021 69.3346 128.173 79.1121 128.173ZM79.1121 127.663C69.0405 127.663 60.8755 133.726 60.8755 141.207C60.8755 144.947 69.993 146.817 79.1121 146.817C88.2312 146.817 97.3487 144.947 97.3487 141.207C97.3487 133.726 89.1837 127.663 79.1121 127.663Z" fill="url(#paint24_linear_131_619)"/>
</g>
</g>
<g filter="url(#filter6_b_131_619)">
<path d="M385.128 75.3803C379.637 75.3803 375.185 70.8761 375.185 65.3198C375.185 59.7635 379.637 55.2593 385.128 55.2593C390.619 55.2593 395.07 59.7635 395.07 65.3198C395.07 70.8761 390.619 75.3803 385.128 75.3803Z" fill="#9FA7B6"/>
<path d="M403.365 92.2472C403.365 99.728 366.892 99.728 366.892 92.2472C366.892 84.7664 375.057 78.703 385.128 78.703C395.2 78.703 403.365 84.7664 403.365 92.2472Z" fill="#9FA7B6"/>
<g style="mix-blend-mode:soft-light" opacity="0.5">
<path d="M385.128 75.3803C379.637 75.3803 375.185 70.8761 375.185 65.3198C375.185 59.7635 379.637 55.2593 385.128 55.2593C390.619 55.2593 395.07 59.7635 395.07 65.3198C395.07 70.8761 390.619 75.3803 385.128 75.3803Z" fill="url(#paint25_linear_131_619)"/>
<path d="M403.365 92.2472C403.365 99.728 366.892 99.728 366.892 92.2472C366.892 84.7664 375.057 78.703 385.128 78.703C395.2 78.703 403.365 84.7664 403.365 92.2472Z" fill="url(#paint26_linear_131_619)"/>
</g>
<g style="mix-blend-mode:screen" opacity="0.5">
<path d="M385.128 55.7667C390.332 55.7667 394.567 60.0521 394.567 65.3186C394.567 70.585 390.332 74.8704 385.128 74.8704C379.923 74.8704 375.688 70.585 375.688 65.3186C375.688 60.0521 379.923 55.7667 385.128 55.7667ZM385.128 55.2565C379.637 55.2565 375.185 59.7607 375.185 65.317C375.185 70.8733 379.637 75.3775 385.128 75.3775C390.619 75.3775 395.07 70.8733 395.07 65.317C395.07 59.7607 390.619 55.2565 385.128 55.2565Z" fill="url(#paint27_linear_131_619)"/>
<path d="M385.128 79.2105C394.906 79.2105 402.861 85.0581 402.861 92.246C402.861 95.1533 395.237 97.3471 385.128 97.3471C375.019 97.3471 367.396 95.1548 367.396 92.246C367.396 85.0581 375.351 79.2105 385.128 79.2105ZM385.128 78.7002C375.057 78.7002 366.892 84.7636 366.892 92.2444C366.892 95.9848 376.009 97.8542 385.128 97.8542C394.248 97.8542 403.365 95.9848 403.365 92.2444C403.365 84.7636 395.2 78.7002 385.128 78.7002Z" fill="url(#paint28_linear_131_619)"/>
</g>
</g>
<defs>
<filter id="filter0_b_131_619" x="142.057" y="76.9838" width="195.205" height="251.557" filterUnits="userSpaceOnUse" color-interpolation-filters="sRGB">
<feFlood flood-opacity="0" result="BackgroundImageFix"/>
<feGaussianBlur in="BackgroundImageFix" stdDeviation="4"/>
<feComposite in2="SourceAlpha" operator="in" result="effect1_backgroundBlur_131_619"/>
<feBlend mode="normal" in="SourceGraphic" in2="effect1_backgroundBlur_131_619" result="shape"/>
</filter>
<filter id="filter1_b_131_619" x="43.2297" y="157.423" width="70.5398" height="87.6897" filterUnits="userSpaceOnUse" color-interpolation-filters="sRGB">
<feFlood flood-opacity="0" result="BackgroundImageFix"/>
<feGaussianBlur in="BackgroundImageFix" stdDeviation="4"/>
<feComposite in2="SourceAlpha" operator="in" result="effect1_backgroundBlur_131_619"/>
<feBlend mode="normal" in="SourceGraphic" in2="effect1_backgroundBlur_131_619" result="shape"/>
</filter>
<filter id="filter2_b_131_619" x="355.733" y="101.466" width="60.5315" height="74.5347" filterUnits="userSpaceOnUse" color-interpolation-filters="sRGB">
<feFlood flood-opacity="0" result="BackgroundImageFix"/>
<feGaussianBlur in="BackgroundImageFix" stdDeviation="4"/>
<feComposite in2="SourceAlpha" operator="in" result="effect1_backgroundBlur_131_619"/>
<feBlend mode="normal" in="SourceGraphic" in2="effect1_backgroundBlur_131_619" result="shape"/>
</filter>
<filter id="filter3_b_131_619" x="232.246" y="242.395" width="104.62" height="117.414" filterUnits="userSpaceOnUse" color-interpolation-filters="sRGB">
<feFlood flood-opacity="0" result="BackgroundImageFix"/>
<feGaussianBlur in="BackgroundImageFix" stdDeviation="10"/>
<feComposite in2="SourceAlpha" operator="in" result="effect1_backgroundBlur_131_619"/>
<feBlend mode="normal" in="SourceGraphic" in2="effect1_backgroundBlur_131_619" result="shape"/>
</filter>
<filter id="filter4_b_131_619" x="307.935" y="232.369" width="62.9973" height="63.0017" filterUnits="userSpaceOnUse" color-interpolation-filters="sRGB">
<feFlood flood-opacity="0" result="BackgroundImageFix"/>
<feGaussianBlur in="BackgroundImageFix" stdDeviation="1.5"/>
<feComposite in2="SourceAlpha" operator="in" result="effect1_backgroundBlur_131_619"/>
<feBlend mode="normal" in="SourceGraphic" in2="effect1_backgroundBlur_131_619" result="shape"/>
</filter>
<filter id="filter5_b_131_619" x="52.8755" y="96.2191" width="52.4731" height="58.6012" filterUnits="userSpaceOnUse" color-interpolation-filters="sRGB">
<feFlood flood-opacity="0" result="BackgroundImageFix"/>
<feGaussianBlur in="BackgroundImageFix" stdDeviation="4"/>
<feComposite in2="SourceAlpha" operator="in" result="effect1_backgroundBlur_131_619"/>
<feBlend mode="normal" in="SourceGraphic" in2="effect1_backgroundBlur_131_619" result="shape"/>
</filter>
<filter id="filter6_b_131_619" x="358.892" y="47.2565" width="52.4731" height="58.6013" filterUnits="userSpaceOnUse" color-interpolation-filters="sRGB">
<feFlood flood-opacity="0" result="BackgroundImageFix"/>
<feGaussianBlur in="BackgroundImageFix" stdDeviation="4"/>
<feComposite in2="SourceAlpha" operator="in" result="effect1_backgroundBlur_131_619"/>
<feBlend mode="normal" in="SourceGraphic" in2="effect1_backgroundBlur_131_619" result="shape"/>
</filter>
<linearGradient id="paint0_linear_131_619" x1="172.109" y1="258.804" x2="307.795" y2="394.418" gradientUnits="userSpaceOnUse">
<stop stop-color="#E7E9ED"/>
<stop offset="1" stop-color="#B6C7E0"/>
</linearGradient>
<linearGradient id="paint1_linear_131_619" x1="207.763" y1="300.944" x2="257.6" y2="374.388" gradientUnits="userSpaceOnUse">
<stop stop-color="#DCE3EA"/>
<stop offset="1" stop-color="#AABDDC"/>
</linearGradient>
<linearGradient id="paint2_linear_131_619" x1="179.686" y1="286.434" x2="208.648" y2="315.477" gradientUnits="userSpaceOnUse">
<stop stop-color="#7F8EA9"/>
<stop offset="1" stop-color="#2B3E62"/>
</linearGradient>
<linearGradient id="paint3_linear_131_619" x1="138.593" y1="286.434" x2="167.554" y2="315.477" gradientUnits="userSpaceOnUse">
<stop stop-color="#7F8EA9"/>
<stop offset="1" stop-color="#2B3E62"/>
</linearGradient>
<linearGradient id="paint4_linear_131_619" x1="160.509" y1="246.71" x2="189.471" y2="275.753" gradientUnits="userSpaceOnUse">
<stop stop-color="#7F8EA9"/>
<stop offset="1" stop-color="#2B3E62"/>
</linearGradient>
<linearGradient id="paint5_linear_131_619" x1="52.9832" y1="211.529" x2="104.155" y2="262.674" gradientUnits="userSpaceOnUse">
<stop stop-color="#374051"/>
<stop offset="1"/>
</linearGradient>
<linearGradient id="paint6_linear_131_619" x1="57.1129" y1="175.571" x2="99.8338" y2="218.272" gradientUnits="userSpaceOnUse">
<stop stop-color="white"/>
<stop offset="0.2" stop-color="#F6F9FF"/>
<stop offset="0.52" stop-color="#DDEBFF"/>
<stop offset="0.92" stop-color="#B6D3FF"/>
<stop offset="1" stop-color="#AECFFF"/>
</linearGradient>
<linearGradient id="paint7_linear_131_619" x1="75.9987" y1="176.853" x2="81.1745" y2="208.723" gradientUnits="userSpaceOnUse">
<stop stop-color="#C8CCD3"/>
<stop offset="1" stop-color="#C8CCD3" stop-opacity="0"/>
</linearGradient>
<linearGradient id="paint8_linear_131_619" x1="365.164" y1="147.112" x2="406.946" y2="188.871" gradientUnits="userSpaceOnUse">
<stop stop-color="#374051"/>
<stop offset="1"/>
</linearGradient>
<linearGradient id="paint9_linear_131_619" x1="368.536" y1="117.752" x2="403.418" y2="152.616" gradientUnits="userSpaceOnUse">
<stop stop-color="white"/>
<stop offset="0.2" stop-color="#F6F9FF"/>
<stop offset="0.52" stop-color="#DDEBFF"/>
<stop offset="0.92" stop-color="#B6D3FF"/>
<stop offset="1" stop-color="#AECFFF"/>
</linearGradient>
<linearGradient id="paint10_linear_131_619" x1="383.956" y1="118.798" x2="388.182" y2="144.82" gradientUnits="userSpaceOnUse">
<stop stop-color="#C8CCD3"/>
<stop offset="1" stop-color="#C8CCD3" stop-opacity="0"/>
</linearGradient>
<linearGradient id="paint11_linear_131_619" x1="271.81" y1="257.313" x2="332.212" y2="317.715" gradientUnits="userSpaceOnUse">
<stop stop-color="#8D9DBB"/>
<stop offset="1" stop-color="#223354"/>
</linearGradient>
<linearGradient id="paint12_linear_131_619" x1="246.057" y1="280.454" x2="316.915" y2="328.16" gradientUnits="userSpaceOnUse">
<stop stop-color="white"/>
<stop offset="0.2" stop-color="#F6F9FF"/>
<stop offset="0.52" stop-color="#DDEBFF"/>
<stop offset="0.92" stop-color="#B6D3FF"/>
<stop offset="1" stop-color="#AECFFF"/>
</linearGradient>
<linearGradient id="paint13_linear_131_619" x1="290.378" y1="278.692" x2="296.092" y2="270.202" gradientUnits="userSpaceOnUse">
<stop stop-color="white"/>
<stop offset="0.2" stop-color="#F6F9FF"/>
<stop offset="0.52" stop-color="#DDEBFF"/>
<stop offset="0.92" stop-color="#B6D3FF"/>
<stop offset="1" stop-color="#AECFFF"/>
</linearGradient>
<linearGradient id="paint14_linear_131_619" x1="282.796" y1="266.961" x2="304.09" y2="281.297" gradientUnits="userSpaceOnUse">
<stop stop-color="#C5D4FF"/>
<stop offset="0.45" stop-color="#90A5FF"/>
<stop offset="0.81" stop-color="#6D86FF"/>
<stop offset="1" stop-color="#607BFF"/>
</linearGradient>
<linearGradient id="paint15_linear_131_619" x1="246.057" y1="280.454" x2="316.916" y2="328.16" gradientUnits="userSpaceOnUse">
<stop stop-color="#C5D4FF"/>
<stop offset="0.45" stop-color="#90A5FF"/>
<stop offset="0.81" stop-color="#6D86FF"/>
<stop offset="1" stop-color="#607BFF"/>
</linearGradient>
<linearGradient id="paint16_linear_131_619" x1="52.3505" y1="216.397" x2="70.2205" y2="234.317" gradientUnits="userSpaceOnUse">
<stop stop-color="#7F8EA9"/>
<stop offset="1" stop-color="#2B3E62"/>
</linearGradient>
<linearGradient id="paint17_linear_131_619" x1="367.856" y1="287.095" x2="370.716" y2="310.006" gradientUnits="userSpaceOnUse">
<stop stop-color="#374051"/>
<stop offset="1"/>
</linearGradient>
<linearGradient id="paint18_linear_131_619" x1="359.183" y1="280.925" x2="360.965" y2="287.856" gradientUnits="userSpaceOnUse">
<stop stop-color="#374051"/>
<stop offset="1"/>
</linearGradient>
<linearGradient id="paint19_linear_131_619" x1="319.282" y1="243.72" x2="359.585" y2="284.024" gradientUnits="userSpaceOnUse">
<stop stop-color="white"/>
<stop offset="0.2" stop-color="#F6F9FF"/>
<stop offset="0.52" stop-color="#DDEBFF"/>
<stop offset="0.92" stop-color="#B6D3FF"/>
<stop offset="1" stop-color="#AECFFF"/>
</linearGradient>
<linearGradient id="paint20_linear_131_619" x1="310.935" y1="263.871" x2="367.932" y2="263.871" gradientUnits="userSpaceOnUse">
<stop stop-color="#C5D4FF"/>
<stop offset="0.45" stop-color="#90A5FF"/>
<stop offset="0.81" stop-color="#6D86FF"/>
<stop offset="1" stop-color="#607BFF"/>
</linearGradient>
<linearGradient id="paint21_linear_131_619" x1="72.0808" y1="107.167" x2="86.3075" y2="121.228" gradientUnits="userSpaceOnUse">
<stop stop-color="white"/>
<stop offset="0.2" stop-color="#F6F9FF"/>
<stop offset="0.52" stop-color="#DDEBFF"/>
<stop offset="0.92" stop-color="#B6D3FF"/>
<stop offset="1" stop-color="#AECFFF"/>
</linearGradient>
<linearGradient id="paint22_linear_131_619" x1="68.6514" y1="128.903" x2="89.8198" y2="149.823" gradientUnits="userSpaceOnUse">
<stop stop-color="white"/>
<stop offset="0.2" stop-color="#F6F9FF"/>
<stop offset="0.52" stop-color="#DDEBFF"/>
<stop offset="0.92" stop-color="#B6D3FF"/>
<stop offset="1" stop-color="#AECFFF"/>
</linearGradient>
<linearGradient id="paint23_linear_131_619" x1="72.0808" y1="107.166" x2="86.3075" y2="121.227" gradientUnits="userSpaceOnUse">
<stop stop-color="#C5D4FF"/>
<stop offset="0.45" stop-color="#90A5FF"/>
<stop offset="0.81" stop-color="#6D86FF"/>
<stop offset="1" stop-color="#607BFF"/>
</linearGradient>
<linearGradient id="paint24_linear_131_619" x1="68.6514" y1="128.902" x2="89.8198" y2="149.822" gradientUnits="userSpaceOnUse">
<stop stop-color="white"/>
<stop offset="0.45" stop-color="#90A5FF"/>
<stop offset="0.81" stop-color="#6D86FF"/>
<stop offset="1" stop-color="#607BFF"/>
</linearGradient>
<linearGradient id="paint25_linear_131_619" x1="378.097" y1="58.2044" x2="392.324" y2="72.2657" gradientUnits="userSpaceOnUse">
<stop stop-color="white"/>
<stop offset="0.2" stop-color="#F6F9FF"/>
<stop offset="0.52" stop-color="#DDEBFF"/>
<stop offset="0.92" stop-color="#B6D3FF"/>
<stop offset="1" stop-color="#AECFFF"/>
</linearGradient>
<linearGradient id="paint26_linear_131_619" x1="374.668" y1="79.9409" x2="395.836" y2="100.861" gradientUnits="userSpaceOnUse">
<stop stop-color="white"/>
<stop offset="0.2" stop-color="#F6F9FF"/>
<stop offset="0.52" stop-color="#DDEBFF"/>
<stop offset="0.92" stop-color="#B6D3FF"/>
<stop offset="1" stop-color="#AECFFF"/>
</linearGradient>
<linearGradient id="paint27_linear_131_619" x1="378.097" y1="58.2031" x2="392.324" y2="72.2644" gradientUnits="userSpaceOnUse">
<stop stop-color="#C5D4FF"/>
<stop offset="0.45" stop-color="#90A5FF"/>
<stop offset="0.81" stop-color="#6D86FF"/>
<stop offset="1" stop-color="#607BFF"/>
</linearGradient>
<linearGradient id="paint28_linear_131_619" x1="374.668" y1="79.9396" x2="395.836" y2="100.86" gradientUnits="userSpaceOnUse">
<stop stop-color="white"/>
<stop offset="0.45" stop-color="#90A5FF"/>
<stop offset="0.81" stop-color="#6D86FF"/>
<stop offset="1" stop-color="#607BFF"/>
</linearGradient>
</defs>
</svg>
