<svg width="452" height="455" viewBox="0 0 452 455" fill="none" xmlns="http://www.w3.org/2000/svg">
<path d="M302.555 91.1688H176.746C169.797 91.1688 164.164 96.8021 164.164 103.751V285.276C164.164 292.225 169.797 297.859 176.746 297.859H302.555C309.504 297.859 315.137 292.225 315.137 285.276V103.751C315.137 96.8021 309.504 91.1688 302.555 91.1688Z" fill="url(#paint0_linear_131_638)"/>
<path d="M289.527 146.077H190.045C187.008 146.077 184.549 143.618 184.549 140.581C184.549 137.544 187.008 135.085 190.045 135.085H289.527C292.564 135.085 295.024 137.544 295.024 140.581C295.024 143.618 292.564 146.077 289.527 146.077Z" fill="#6B7280"/>
<path d="M289.527 179.285H190.045C187.008 179.285 184.549 176.826 184.549 173.789C184.549 170.752 187.008 168.293 190.045 168.293H289.527C292.564 168.293 295.024 170.752 295.024 173.789C295.024 176.826 292.564 179.285 289.527 179.285Z" fill="#6B7280"/>
<path d="M289.527 212.494H190.045C187.008 212.494 184.549 210.034 184.549 206.997C184.549 203.961 187.008 201.501 190.045 201.501H289.527C292.564 201.501 295.024 203.961 295.024 206.997C295.024 210.034 292.564 212.494 289.527 212.494Z" fill="#6B7280"/>
<g filter="url(#filter0_b_131_638)">
<g opacity="0.45">
<path d="M254.271 163.94L281.592 303.853C282.924 310.674 278.476 317.281 271.654 318.613L148.184 342.724C141.363 344.056 134.756 339.607 133.424 332.786L98.6355 154.632C97.3035 147.811 101.752 141.204 108.573 139.872L193.856 123.218L254.271 163.94Z" fill="#9FA7B6"/>
</g>
<g style="mix-blend-mode:soft-light" opacity="0.5">
<path d="M254.271 163.94L281.592 303.853C282.924 310.674 278.476 317.281 271.654 318.613L148.184 342.724C141.363 344.056 134.756 339.607 133.424 332.786L98.6355 154.632C97.3035 147.811 101.752 141.204 108.573 139.872L193.856 123.218L254.271 163.94Z" fill="url(#paint1_linear_131_638)"/>
</g>
<g style="mix-blend-mode:soft-light" opacity="0.5">
<path d="M251.213 164.537L216.086 171.397C209.258 172.73 202.645 168.283 201.314 161.468L194.438 126.255L251.206 164.539L251.213 164.537Z" fill="url(#paint2_linear_131_638)"/>
</g>
<g style="mix-blend-mode:screen" opacity="0.5">
<path d="M197.032 128.005L201.543 131.042L248.654 162.794L215.674 169.234C210.053 170.332 204.586 166.651 203.488 161.03L197.039 128.003L197.032 128.005ZM193.854 123.212L201.321 161.453C202.653 168.274 209.26 172.722 216.081 171.39L254.269 163.933L202.765 129.218L193.854 123.212Z" fill="url(#paint3_linear_131_638)"/>
</g>
<path d="M236.692 208.228L139.053 227.294C136.073 227.876 133.187 225.933 132.605 222.953C132.023 219.972 133.966 217.087 136.946 216.505L234.585 197.439C237.565 196.857 240.451 198.799 241.033 201.78C241.615 204.76 239.672 207.646 236.692 208.228Z" fill="white"/>
<path d="M243.056 240.82L145.418 259.886C142.437 260.468 139.552 258.526 138.97 255.545C138.388 252.565 140.331 249.68 143.311 249.098L240.95 230.032C243.93 229.45 246.815 231.392 247.397 234.373C247.979 237.353 246.037 240.238 243.056 240.82Z" fill="white"/>
<path d="M249.424 273.413L151.786 292.479C148.805 293.061 145.92 291.119 145.338 288.138C144.756 285.158 146.698 282.273 149.679 281.69L247.317 262.624C250.298 262.042 253.183 263.985 253.765 266.965C254.347 269.946 252.405 272.831 249.424 273.413Z" fill="white"/>
<g style="mix-blend-mode:screen" opacity="0.5">
<path d="M193.385 125.547L252.293 165.254L279.44 304.274C280.537 309.895 276.857 315.362 271.235 316.46L147.765 340.57C142.144 341.668 136.677 337.987 135.579 332.365L100.791 154.212C99.6932 148.591 103.374 143.123 108.995 142.026L193.385 125.547ZM193.856 123.212L108.573 139.865C101.752 141.197 97.3038 147.804 98.6358 154.626L133.424 332.779C134.756 339.601 141.363 344.049 148.185 342.717L271.655 318.607C278.476 317.275 282.924 310.668 281.592 303.846L254.272 163.94L193.858 123.218L193.856 123.212Z" fill="url(#paint4_linear_131_638)"/>
</g>
</g>
<path fill-rule="evenodd" clip-rule="evenodd" d="M362.539 346.526C365.725 349.712 365.725 354.877 362.539 358.063C359.353 361.249 354.188 361.249 351.002 358.063L324.154 331.215C320.968 328.029 320.968 322.864 324.154 319.678C327.34 316.492 332.505 316.492 335.691 319.678L362.539 346.526Z" fill="url(#paint5_linear_131_638)"/>
<path fill-rule="evenodd" clip-rule="evenodd" d="M328.057 319.118C329.248 320.309 329.248 322.241 328.057 323.433C326.865 324.625 324.933 324.625 323.741 323.433L317.147 316.839C315.956 315.648 315.956 313.715 317.147 312.524C318.339 311.332 320.271 311.332 321.463 312.524L328.057 319.118Z" fill="url(#paint6_linear_131_638)"/>
<g filter="url(#filter1_b_131_638)">
<g opacity="0.45">
<path d="M285.956 333.825C258.094 333.825 235.504 311.235 235.504 283.374C235.504 255.512 258.094 232.923 285.956 232.923C313.817 232.923 336.407 255.512 336.407 283.374C336.407 311.235 313.817 333.825 285.956 333.825Z" fill="#9FA7B6"/>
</g>
<g style="mix-blend-mode:soft-light" opacity="0.5">
<path d="M285.956 333.825C258.094 333.825 235.504 311.235 235.504 283.374C235.504 255.512 258.094 232.923 285.956 232.923C313.817 232.923 336.407 255.512 336.407 283.374C336.407 311.235 313.817 333.825 285.956 333.825Z" fill="url(#paint7_linear_131_638)"/>
</g>
<g style="mix-blend-mode:screen" opacity="0.5">
<path d="M285.956 235.116C312.56 235.116 334.213 256.762 334.213 283.373C334.213 309.985 312.567 331.63 285.956 331.63C259.344 331.63 237.699 309.985 237.699 283.373C237.699 256.762 259.344 235.116 285.956 235.116ZM285.956 232.915C258.094 232.915 235.504 255.505 235.504 283.367C235.504 311.228 258.094 333.818 285.956 333.818C313.817 333.818 336.407 311.228 336.407 283.367C336.407 255.505 313.817 232.915 285.956 232.915Z" fill="url(#paint8_linear_131_638)"/>
</g>
</g>
<path d="M166.094 338.949C166.094 328.288 157.451 319.645 146.79 319.645C136.129 319.645 127.486 328.288 127.486 338.949C127.486 349.61 136.129 358.253 146.79 358.253C157.451 358.253 166.094 349.61 166.094 338.949Z" fill="#9FA7B6"/>
<path d="M129.728 320.521C125.487 324.357 125.762 332.824 125.762 338.982C125.762 345.035 125.614 353.199 129.728 357.026C133.483 360.52 141.243 359.947 146.785 359.947C152.326 359.947 159.659 360.52 163.415 357.026C167.528 353.199 167.808 345.035 167.808 338.982C167.808 333.409 168.227 325.528 164.67 321.773C160.838 317.727 152.807 318.018 146.785 318.018C141.35 318.018 133.459 317.146 129.728 320.521Z" fill="url(#paint9_linear_131_638)"/>
<path d="M131.09 342.343L132.382 335.077H134.494L133.491 340.753H136.636L136.348 342.343H131.09Z" fill="white"/>
<path d="M144.951 338.838C144.809 339.628 144.528 340.29 144.108 340.824C143.687 341.359 143.177 341.762 142.577 342.034C141.977 342.306 141.335 342.442 140.651 342.442C139.922 342.442 139.288 342.294 138.752 341.999C138.215 341.703 137.823 341.27 137.578 340.7C137.332 340.13 137.283 339.434 137.43 338.611C137.566 337.821 137.845 337.156 138.265 336.617C138.686 336.078 139.199 335.67 139.804 335.393C140.409 335.116 141.056 334.978 141.745 334.978C142.469 334.978 143.099 335.127 143.633 335.425C144.17 335.723 144.56 336.159 144.803 336.734C145.049 337.309 145.098 338.01 144.951 338.838ZM142.824 338.611C142.895 338.194 142.9 337.844 142.839 337.561C142.778 337.274 142.65 337.059 142.455 336.915C142.26 336.768 141.998 336.695 141.669 336.695C141.294 336.695 140.962 336.78 140.674 336.95C140.385 337.121 140.146 337.365 139.956 337.685C139.766 338.004 139.633 338.388 139.557 338.838C139.476 339.259 139.468 339.609 139.534 339.888C139.602 340.167 139.737 340.376 139.937 340.516C140.139 340.655 140.403 340.725 140.727 340.725C141.097 340.725 141.423 340.642 141.707 340.477C141.993 340.311 142.23 340.071 142.417 339.756C142.607 339.442 142.743 339.06 142.824 338.611Z" fill="white"/>
<path d="M148.237 342.343H145.198L146.49 335.077H149.407C150.208 335.077 150.876 335.227 151.413 335.528C151.95 335.828 152.331 336.257 152.557 336.816C152.782 337.374 152.826 338.038 152.69 338.809C152.558 339.552 152.291 340.187 151.888 340.714C151.488 341.242 150.976 341.645 150.353 341.924C149.733 342.203 149.028 342.343 148.237 342.343ZM147.607 340.668H148.374C148.759 340.668 149.102 340.606 149.404 340.48C149.708 340.352 149.961 340.14 150.163 339.842C150.368 339.541 150.517 339.131 150.608 338.611C150.694 338.119 150.691 337.739 150.6 337.472C150.509 337.202 150.336 337.015 150.08 336.911C149.824 336.805 149.494 336.752 149.088 336.752H148.306L147.607 340.668Z" fill="white"/>
<path d="M156.34 335.077L155.049 342.343H152.937L154.228 335.077H156.34Z" fill="white"/>
<path d="M161.018 337.348C161.041 337.114 160.98 336.93 160.836 336.798C160.691 336.663 160.448 336.596 160.106 336.596C159.889 336.596 159.706 336.619 159.559 336.667C159.415 336.714 159.302 336.779 159.221 336.862C159.143 336.944 159.093 337.04 159.073 337.149C159.05 337.234 159.052 337.312 159.077 337.383C159.105 337.452 159.157 337.514 159.233 337.571C159.311 337.628 159.414 337.679 159.54 337.724C159.669 337.769 159.823 337.809 160 337.844L160.608 337.972C161.023 338.057 161.371 338.17 161.652 338.309C161.936 338.446 162.159 338.609 162.321 338.799C162.483 338.988 162.589 339.2 162.64 339.434C162.693 339.668 162.695 339.923 162.644 340.2C162.558 340.678 162.359 341.082 162.047 341.413C161.736 341.744 161.33 341.996 160.828 342.169C160.327 342.342 159.747 342.428 159.088 342.428C158.415 342.428 157.842 342.334 157.371 342.148C156.903 341.958 156.563 341.67 156.353 341.282C156.145 340.892 156.095 340.394 156.201 339.788H158.207C158.177 340.011 158.202 340.198 158.283 340.349C158.364 340.5 158.494 340.615 158.674 340.693C158.854 340.771 159.078 340.81 159.347 340.81C159.574 340.81 159.769 340.784 159.932 340.732C160.094 340.68 160.222 340.608 160.315 340.516C160.409 340.423 160.466 340.318 160.486 340.2C160.506 340.091 160.486 339.994 160.425 339.909C160.365 339.824 160.254 339.747 160.095 339.678C159.935 339.61 159.716 339.547 159.438 339.49L158.693 339.334C158.032 339.192 157.533 338.958 157.196 338.632C156.86 338.306 156.741 337.859 156.839 337.291C156.92 336.827 157.124 336.423 157.451 336.078C157.78 335.73 158.198 335.46 158.705 335.269C159.214 335.075 159.777 334.978 160.395 334.978C161.023 334.978 161.549 335.076 161.972 335.272C162.397 335.469 162.702 335.744 162.887 336.099C163.074 336.454 163.125 336.87 163.039 337.348H161.018Z" fill="white"/>
<path d="M124.029 338.949C124.029 328.288 115.386 319.645 104.725 319.645C94.0635 319.645 85.4209 328.288 85.4209 338.949C85.4209 349.61 94.0635 358.253 104.725 358.253C115.386 358.253 124.029 349.61 124.029 338.949Z" fill="#9FA7B6"/>
<path d="M87.6625 320.521C83.4223 324.357 83.6965 332.824 83.6965 338.982C83.6965 345.035 83.5492 353.199 87.6625 357.026C91.4182 360.52 99.178 359.947 104.72 359.947C110.261 359.947 117.594 360.52 121.35 357.026C125.463 353.199 125.743 345.035 125.743 338.982C125.743 333.409 126.162 325.528 122.605 321.773C118.772 317.727 110.742 318.018 104.72 318.018C99.2846 318.018 91.3942 317.146 87.6625 320.521Z" fill="url(#paint10_linear_131_638)"/>
<path d="M89.0249 342.343L90.3165 335.077H92.4286L91.4257 340.753H94.5711L94.2824 342.343H89.0249Z" fill="white"/>
<path d="M102.886 338.838C102.744 339.628 102.463 340.29 102.043 340.824C101.622 341.359 101.112 341.762 100.512 342.034C99.9115 342.306 99.2695 342.442 98.5858 342.442C97.8564 342.442 97.2233 342.294 96.6864 341.999C96.1495 341.703 95.7582 341.27 95.5126 340.7C95.2669 340.13 95.2175 339.434 95.3644 338.611C95.5012 337.821 95.7797 337.156 96.2001 336.617C96.6205 336.078 97.1334 335.67 97.7386 335.393C98.3439 335.116 98.991 334.978 99.6798 334.978C100.404 334.978 101.033 335.127 101.568 335.425C102.105 335.723 102.495 336.159 102.738 336.734C102.983 337.309 103.033 338.01 102.886 338.838ZM100.759 338.611C100.83 338.194 100.835 337.844 100.774 337.561C100.713 337.274 100.585 337.059 100.39 336.915C100.195 336.768 99.933 336.695 99.6038 336.695C99.229 336.695 98.8972 336.78 98.6085 336.95C98.3198 337.121 98.0805 337.365 97.8906 337.685C97.7006 338.004 97.5677 338.388 97.4917 338.838C97.4107 339.259 97.4031 339.609 97.4689 339.888C97.5373 340.167 97.6715 340.376 97.8716 340.516C98.0742 340.655 98.3376 340.725 98.6617 340.725C99.0315 340.725 99.3582 340.642 99.6418 340.477C99.928 340.311 100.165 340.071 100.352 339.756C100.542 339.442 100.678 339.06 100.759 338.611Z" fill="white"/>
<path d="M106.172 342.343H103.133L104.425 335.077H107.342C108.142 335.077 108.811 335.227 109.348 335.528C109.885 335.828 110.266 336.257 110.491 336.816C110.717 337.374 110.761 338.038 110.624 338.809C110.493 339.552 110.225 340.187 109.823 340.714C109.423 341.242 108.911 341.645 108.288 341.924C107.668 342.203 106.962 342.343 106.172 342.343ZM105.542 340.668H106.309C106.694 340.668 107.037 340.606 107.338 340.48C107.642 340.352 107.896 340.14 108.098 339.842C108.303 339.541 108.451 339.131 108.543 338.611C108.629 338.119 108.626 337.739 108.535 337.472C108.444 337.202 108.27 337.015 108.015 336.911C107.759 336.805 107.428 336.752 107.023 336.752H106.241L105.542 340.668Z" fill="white"/>
<path d="M114.275 335.077L112.984 342.343H110.872L112.163 335.077H114.275Z" fill="white"/>
<path d="M118.953 337.348C118.976 337.114 118.915 336.93 118.77 336.798C118.626 336.663 118.383 336.596 118.041 336.596C117.823 336.596 117.641 336.619 117.494 336.667C117.35 336.714 117.237 336.779 117.156 336.862C117.078 336.944 117.028 337.04 117.008 337.149C116.985 337.234 116.986 337.312 117.012 337.383C117.04 337.452 117.091 337.514 117.167 337.571C117.246 337.628 117.348 337.679 117.475 337.724C117.604 337.769 117.757 337.809 117.935 337.844L118.543 337.972C118.958 338.057 119.306 338.17 119.587 338.309C119.871 338.446 120.094 338.609 120.256 338.799C120.418 338.988 120.524 339.2 120.575 339.434C120.628 339.668 120.629 339.923 120.579 340.2C120.493 340.678 120.294 341.082 119.982 341.413C119.671 341.744 119.264 341.996 118.763 342.169C118.261 342.342 117.682 342.428 117.023 342.428C116.349 342.428 115.777 342.334 115.306 342.148C114.838 341.958 114.498 341.67 114.288 341.282C114.08 340.892 114.03 340.394 114.136 339.788H116.142C116.111 340.011 116.137 340.198 116.218 340.349C116.299 340.5 116.429 340.615 116.609 340.693C116.789 340.771 117.013 340.81 117.281 340.81C117.509 340.81 117.704 340.784 117.866 340.732C118.028 340.68 118.156 340.608 118.25 340.516C118.344 340.423 118.401 340.318 118.421 340.2C118.441 340.091 118.421 339.994 118.36 339.909C118.299 339.824 118.189 339.747 118.03 339.678C117.87 339.61 117.651 339.547 117.373 339.49L116.628 339.334C115.967 339.192 115.468 338.958 115.131 338.632C114.794 338.306 114.675 337.859 114.774 337.291C114.855 336.827 115.059 336.423 115.386 336.078C115.715 335.73 116.133 335.46 116.639 335.269C117.148 335.075 117.712 334.978 118.33 334.978C118.958 334.978 119.483 335.076 119.906 335.272C120.332 335.469 120.637 335.744 120.822 336.099C121.009 336.454 121.06 336.87 120.974 337.348H118.953Z" fill="white"/>
<path d="M146.463 298.286C146.463 287.625 137.821 278.982 127.16 278.982C116.498 278.982 107.856 287.625 107.856 298.286C107.856 308.947 116.498 317.59 127.16 317.59C137.821 317.59 146.463 308.947 146.463 298.286Z" fill="#9FA7B6"/>
<path d="M110.097 279.858C105.857 283.694 106.131 292.161 106.131 298.319C106.131 304.371 105.984 312.536 110.097 316.363C113.853 319.857 121.613 319.284 127.154 319.284C132.696 319.284 140.029 319.857 143.785 316.363C147.898 312.536 148.177 304.371 148.177 298.319C148.177 292.746 148.597 284.865 145.04 281.11C141.207 277.064 133.176 277.355 127.154 277.355C121.719 277.355 113.829 276.483 110.097 279.858Z" fill="url(#paint11_linear_131_638)"/>
<path d="M111.459 301.679L112.751 294.414H114.863L113.86 300.09H117.006L116.717 301.679H111.459Z" fill="white"/>
<path d="M125.321 298.174C125.179 298.964 124.898 299.627 124.477 300.161C124.057 300.696 123.546 301.099 122.946 301.371C122.346 301.643 121.704 301.779 121.02 301.779C120.291 301.779 119.658 301.631 119.121 301.335C118.584 301.04 118.193 300.607 117.947 300.037C117.701 299.467 117.652 298.77 117.799 297.947C117.936 297.157 118.214 296.493 118.635 295.954C119.055 295.414 119.568 295.006 120.173 294.73C120.778 294.453 121.426 294.315 122.114 294.315C122.839 294.315 123.468 294.464 124.002 294.762C124.539 295.06 124.929 295.496 125.172 296.071C125.418 296.645 125.467 297.347 125.321 298.174ZM123.193 297.947C123.264 297.531 123.269 297.181 123.208 296.897C123.148 296.611 123.02 296.396 122.825 296.252C122.63 296.105 122.368 296.032 122.038 296.032C121.664 296.032 121.332 296.117 121.043 296.287C120.754 296.457 120.515 296.702 120.325 297.021C120.135 297.341 120.002 297.725 119.926 298.174C119.845 298.595 119.838 298.945 119.903 299.225C119.972 299.504 120.106 299.713 120.306 299.852C120.509 299.992 120.772 300.062 121.096 300.062C121.466 300.062 121.793 299.979 122.076 299.813C122.363 299.648 122.599 299.408 122.787 299.093C122.977 298.779 123.112 298.397 123.193 297.947Z" fill="white"/>
<path d="M128.607 301.679H125.568L126.859 294.414H129.777C130.577 294.414 131.246 294.564 131.783 294.864C132.319 295.165 132.701 295.594 132.926 296.152C133.151 296.71 133.196 297.375 133.059 298.146C132.927 298.889 132.66 299.524 132.257 300.051C131.857 300.579 131.346 300.982 130.723 301.261C130.102 301.54 129.397 301.679 128.607 301.679ZM127.976 300.005H128.744C129.128 300.005 129.472 299.942 129.773 299.817C130.077 299.689 130.33 299.476 130.533 299.178C130.738 298.878 130.886 298.468 130.977 297.947C131.063 297.455 131.061 297.076 130.97 296.809C130.878 296.539 130.705 296.352 130.449 296.248C130.193 296.142 129.863 296.088 129.458 296.088H128.675L127.976 300.005Z" fill="white"/>
<path d="M136.71 294.414L135.418 301.679H133.306L134.598 294.414H136.71Z" fill="white"/>
<path d="M141.387 296.684C141.41 296.45 141.349 296.267 141.205 296.135C141.061 296 140.818 295.932 140.476 295.932C140.258 295.932 140.076 295.956 139.929 296.003C139.784 296.051 139.672 296.116 139.591 296.198C139.512 296.281 139.463 296.377 139.442 296.486C139.42 296.571 139.421 296.649 139.446 296.72C139.474 296.788 139.526 296.851 139.602 296.908C139.681 296.965 139.783 297.016 139.91 297.06C140.039 297.105 140.192 297.146 140.369 297.181L140.977 297.309C141.392 297.394 141.741 297.506 142.022 297.646C142.305 297.783 142.528 297.946 142.69 298.135C142.852 298.325 142.959 298.536 143.009 298.77C143.063 299.005 143.064 299.26 143.013 299.537C142.927 300.014 142.728 300.419 142.417 300.75C142.105 301.081 141.699 301.333 141.197 301.506C140.696 301.678 140.116 301.765 139.458 301.765C138.784 301.765 138.212 301.671 137.741 301.484C137.272 301.295 136.933 301.007 136.723 300.619C136.515 300.229 136.464 299.731 136.571 299.125H138.576C138.546 299.348 138.571 299.534 138.652 299.686C138.733 299.837 138.864 299.952 139.044 300.03C139.223 300.108 139.448 300.147 139.716 300.147C139.944 300.147 140.139 300.121 140.301 300.069C140.463 300.017 140.591 299.945 140.685 299.852C140.778 299.76 140.835 299.655 140.856 299.537C140.876 299.428 140.856 299.331 140.795 299.246C140.734 299.161 140.624 299.084 140.464 299.015C140.305 298.947 140.086 298.884 139.807 298.827L139.063 298.671C138.402 298.529 137.903 298.295 137.566 297.969C137.229 297.642 137.11 297.195 137.209 296.628C137.29 296.164 137.494 295.76 137.82 295.414C138.15 295.067 138.567 294.797 139.074 294.606C139.583 294.412 140.146 294.315 140.764 294.315C141.392 294.315 141.918 294.413 142.341 294.609C142.766 294.805 143.072 295.081 143.256 295.436C143.444 295.79 143.494 296.207 143.408 296.684H141.387Z" fill="white"/>
<defs>
<filter id="filter0_b_131_638" x="78.3999" y="103.212" width="223.428" height="259.747" filterUnits="userSpaceOnUse" color-interpolation-filters="sRGB">
<feFlood flood-opacity="0" result="BackgroundImageFix"/>
<feGaussianBlur in="BackgroundImageFix" stdDeviation="10"/>
<feComposite in2="SourceAlpha" operator="in" result="effect1_backgroundBlur_131_638"/>
<feBlend mode="normal" in="SourceGraphic" in2="effect1_backgroundBlur_131_638" result="shape"/>
</filter>
<filter id="filter1_b_131_638" x="231.504" y="228.915" width="108.903" height="108.91" filterUnits="userSpaceOnUse" color-interpolation-filters="sRGB">
<feFlood flood-opacity="0" result="BackgroundImageFix"/>
<feGaussianBlur in="BackgroundImageFix" stdDeviation="2"/>
<feComposite in2="SourceAlpha" operator="in" result="effect1_backgroundBlur_131_638"/>
<feBlend mode="normal" in="SourceGraphic" in2="effect1_backgroundBlur_131_638" result="shape"/>
</filter>
<linearGradient id="paint0_linear_131_638" x1="153.926" y1="108.785" x2="325.383" y2="280.242" gradientUnits="userSpaceOnUse">
<stop stop-color="#374051"/>
<stop offset="1"/>
</linearGradient>
<linearGradient id="paint1_linear_131_638" x1="80.8296" y1="174.473" x2="281.968" y2="309.892" gradientUnits="userSpaceOnUse">
<stop stop-color="white"/>
<stop offset="0.2" stop-color="#F6F9FF"/>
<stop offset="0.52" stop-color="#DDEBFF"/>
<stop offset="0.92" stop-color="#B6D3FF"/>
<stop offset="1" stop-color="#AECFFF"/>
</linearGradient>
<linearGradient id="paint2_linear_131_638" x1="206.622" y1="169.472" x2="222.841" y2="145.372" gradientUnits="userSpaceOnUse">
<stop stop-color="white"/>
<stop offset="0.2" stop-color="#F6F9FF"/>
<stop offset="0.52" stop-color="#DDEBFF"/>
<stop offset="0.92" stop-color="#B6D3FF"/>
<stop offset="1" stop-color="#AECFFF"/>
</linearGradient>
<linearGradient id="paint3_linear_131_638" x1="185.129" y1="136.171" x2="245.573" y2="176.866" gradientUnits="userSpaceOnUse">
<stop stop-color="#C5D4FF"/>
<stop offset="0.45" stop-color="#90A5FF"/>
<stop offset="0.81" stop-color="#6D86FF"/>
<stop offset="1" stop-color="#607BFF"/>
</linearGradient>
<linearGradient id="paint4_linear_131_638" x1="80.8312" y1="174.473" x2="281.97" y2="309.892" gradientUnits="userSpaceOnUse">
<stop stop-color="#C5D4FF"/>
<stop offset="0.45" stop-color="#90A5FF"/>
<stop offset="0.81" stop-color="#6D86FF"/>
<stop offset="1" stop-color="#607BFF"/>
</linearGradient>
<linearGradient id="paint5_linear_131_638" x1="336.271" y1="324.487" x2="341.334" y2="365.045" gradientUnits="userSpaceOnUse">
<stop stop-color="#374051"/>
<stop offset="1"/>
</linearGradient>
<linearGradient id="paint6_linear_131_638" x1="320.919" y1="313.562" x2="324.073" y2="325.834" gradientUnits="userSpaceOnUse">
<stop stop-color="#374051"/>
<stop offset="1"/>
</linearGradient>
<linearGradient id="paint7_linear_131_638" x1="250.281" y1="247.699" x2="321.63" y2="319.048" gradientUnits="userSpaceOnUse">
<stop stop-color="white"/>
<stop offset="0.2" stop-color="#F6F9FF"/>
<stop offset="0.52" stop-color="#DDEBFF"/>
<stop offset="0.92" stop-color="#B6D3FF"/>
<stop offset="1" stop-color="#AECFFF"/>
</linearGradient>
<linearGradient id="paint8_linear_131_638" x1="235.504" y1="283.373" x2="336.407" y2="283.373" gradientUnits="userSpaceOnUse">
<stop stop-color="#C5D4FF"/>
<stop offset="0.45" stop-color="#90A5FF"/>
<stop offset="0.81" stop-color="#6D86FF"/>
<stop offset="1" stop-color="#607BFF"/>
</linearGradient>
<linearGradient id="paint9_linear_131_638" x1="131.922" y1="324.156" x2="161.569" y2="353.885" gradientUnits="userSpaceOnUse">
<stop stop-color="#374051"/>
<stop offset="1"/>
</linearGradient>
<linearGradient id="paint10_linear_131_638" x1="89.8572" y1="324.156" x2="119.504" y2="353.885" gradientUnits="userSpaceOnUse">
<stop stop-color="#374051"/>
<stop offset="1"/>
</linearGradient>
<linearGradient id="paint11_linear_131_638" x1="112.292" y1="283.492" x2="141.938" y2="313.222" gradientUnits="userSpaceOnUse">
<stop stop-color="#374051"/>
<stop offset="1"/>
</linearGradient>
</defs>
</svg>
