<svg width="452" height="455" viewBox="0 0 452 455" fill="none" xmlns="http://www.w3.org/2000/svg">
<path d="M101 254L357 254" stroke="#9FA7B6" stroke-width="1.5" stroke-dasharray="3 3"/>
<path d="M214.574 316.629C159.219 279.554 164.974 254.471 165.224 194.808C165.224 192.546 166.621 190.467 168.717 189.636L215.672 171.189C216.969 170.674 218.417 170.674 219.714 171.189L266.669 189.636C268.782 190.467 270.162 192.546 270.162 194.808C270.428 254.471 276.167 279.554 220.812 316.629C218.949 317.877 216.437 317.877 214.574 316.629Z" fill="url(#paint0_linear_187_1339)"/>
<g filter="url(#filter0_b_187_1339)">
<g opacity="0.45">
<path d="M230.274 319.565C174.919 282.49 180.657 257.407 180.924 197.744C180.924 195.482 182.321 193.403 184.417 192.571L231.372 174.125C232.669 173.609 234.116 173.609 235.414 174.125L282.369 192.571C284.481 193.403 285.862 195.482 285.862 197.744C286.128 257.407 291.866 282.49 236.511 319.565C234.649 320.812 232.137 320.812 230.274 319.565Z" fill="#9FA7B6"/>
</g>
<g style="mix-blend-mode:soft-light" opacity="0.5">
<path d="M230.274 319.565C174.919 282.49 180.657 257.407 180.924 197.744C180.924 195.482 182.321 193.403 184.417 192.571L231.372 174.125C232.669 173.609 234.116 173.609 235.414 174.125L282.369 192.571C284.481 193.403 285.862 195.482 285.862 197.744C286.128 257.407 291.866 282.49 236.511 319.565C234.649 320.812 232.137 320.812 230.274 319.565Z" fill="url(#paint1_linear_187_1339)"/>
</g>
<g style="mix-blend-mode:screen" opacity="0.5">
<path d="M233.384 175.34C233.883 175.34 234.366 175.439 234.832 175.606L281.787 194.052C283.267 194.634 284.265 196.114 284.282 197.744C284.298 203.017 284.365 207.99 284.431 212.797C284.747 237.481 284.997 255.328 278.943 271.362C272.639 288.112 259.681 302.117 235.63 318.235C234.981 318.667 234.216 318.9 233.401 318.9C232.586 318.9 231.821 318.667 231.172 318.235C207.121 302.117 194.164 288.095 187.86 271.362C181.822 255.312 182.055 237.481 182.371 212.797C182.437 207.99 182.504 203.034 182.52 197.744C182.52 196.114 183.535 194.634 185.015 194.052L231.971 175.606C232.436 175.423 232.919 175.34 233.418 175.34H233.384ZM233.384 173.759C232.702 173.759 232.021 173.892 231.372 174.142L184.417 192.588C182.304 193.42 180.924 195.499 180.924 197.761C180.657 257.424 174.919 282.507 230.274 319.582C231.205 320.197 232.303 320.513 233.384 320.513C234.466 320.513 235.58 320.197 236.495 319.582C291.85 282.507 286.111 257.424 285.845 197.761C285.845 195.499 284.448 193.42 282.352 192.588L235.397 174.142C234.748 173.892 234.066 173.759 233.384 173.759Z" fill="#E3E5EA"/>
</g>
</g>
<path d="M231.787 227.035C231.179 227.035 230.571 226.815 230.113 226.365L221.462 218.06C220.535 217.17 220.535 215.725 221.462 214.835C222.389 213.945 223.894 213.945 224.821 214.835L231.797 221.533L249.418 204.616C250.345 203.726 251.85 203.726 252.777 204.616C253.704 205.506 253.704 206.951 252.777 207.841L233.482 226.365C233.023 226.805 232.415 227.035 231.807 227.035H231.787Z" fill="white"/>
<g clip-path="url(#clip0_187_1339)">
<path d="M104.269 250.804C104.269 226.854 84.9616 207.438 61.1444 207.438C37.3272 207.438 18.0195 226.854 18.0195 250.804C18.0195 274.755 37.3272 294.17 61.1444 294.17C84.9616 294.17 104.269 274.755 104.269 250.804Z" fill="url(#paint2_linear_187_1339)"/>
<g filter="url(#filter1_b_187_1339)">
<g opacity="0.6">
<path d="M61.1446 262.822C49.6784 262.822 40.3833 253.475 40.3833 241.944C40.3833 230.414 49.6784 221.067 61.1446 221.067C72.6108 221.067 81.9059 230.414 81.9059 241.944C81.9059 253.475 72.6108 262.822 61.1446 262.822Z" fill="#9FA7B6"/>
<path d="M99.2253 297.824C99.2253 313.348 23.0637 313.348 23.0637 297.824C23.0637 282.3 40.1135 269.718 61.1445 269.718C82.1756 269.718 99.2253 282.3 99.2253 297.824Z" fill="#9FA7B6"/>
</g>
<g style="mix-blend-mode:soft-light" opacity="0.5">
<path d="M61.1446 262.822C49.6784 262.822 40.3833 253.475 40.3833 241.944C40.3833 230.414 49.6784 221.067 61.1446 221.067C72.6108 221.067 81.9059 230.414 81.9059 241.944C81.9059 253.475 72.6108 262.822 61.1446 262.822Z" fill="url(#paint3_linear_187_1339)"/>
<path d="M99.2253 297.824C99.2253 313.348 23.0637 313.348 23.0637 297.824C23.0637 282.3 40.1135 269.718 61.1445 269.718C82.1756 269.718 99.2253 282.3 99.2253 297.824Z" fill="url(#paint4_linear_187_1339)"/>
</g>
<g style="mix-blend-mode:screen" opacity="0.5">
<path d="M61.1446 222.123C72.0128 222.123 80.8561 231.015 80.8561 241.944C80.8561 252.873 72.0128 261.766 61.1446 261.766C50.2764 261.766 41.4331 252.873 41.4331 241.944C41.4331 231.015 50.2764 222.123 61.1446 222.123ZM61.1446 221.064C49.6784 221.064 40.3833 230.411 40.3833 241.941C40.3833 253.471 49.6784 262.818 61.1446 262.818C72.6108 262.818 81.9059 253.471 81.9059 241.941C81.9059 230.411 72.6108 221.064 61.1446 221.064Z" fill="url(#paint5_linear_187_1339)"/>
<path d="M61.1445 270.773C81.5613 270.773 98.1723 282.908 98.1723 297.824C98.1723 303.857 82.2536 308.41 61.1445 308.41C40.0355 308.41 24.1167 303.861 24.1167 297.824C24.1167 282.908 40.7277 270.773 61.1445 270.773ZM61.1445 269.714C40.1135 269.714 23.0637 282.297 23.0637 297.821C23.0637 305.583 42.1025 309.462 61.1445 309.462C80.1865 309.462 99.2253 305.583 99.2253 297.821C99.2253 282.297 82.1756 269.714 61.1445 269.714Z" fill="url(#paint6_linear_187_1339)"/>
</g>
</g>
</g>
<g clip-path="url(#clip1_187_1339)">
<path d="M433.984 250.804C433.984 226.854 414.676 207.438 390.859 207.438C367.042 207.438 347.734 226.854 347.734 250.804C347.734 274.755 367.042 294.17 390.859 294.17C414.676 294.17 433.984 274.755 433.984 250.804Z" fill="url(#paint7_linear_187_1339)"/>
<g filter="url(#filter2_b_187_1339)">
<g opacity="0.6">
<path d="M390.859 262.822C379.393 262.822 370.098 253.475 370.098 241.944C370.098 230.414 379.393 221.067 390.859 221.067C402.325 221.067 411.62 230.414 411.62 241.944C411.62 253.475 402.325 262.822 390.859 262.822Z" fill="#9FA7B6"/>
<path d="M428.94 297.824C428.94 313.348 352.778 313.348 352.778 297.824C352.778 282.3 369.828 269.718 390.859 269.718C411.89 269.718 428.94 282.3 428.94 297.824Z" fill="#9FA7B6"/>
</g>
<g style="mix-blend-mode:soft-light" opacity="0.5">
<path d="M390.859 262.822C379.393 262.822 370.098 253.475 370.098 241.944C370.098 230.414 379.393 221.067 390.859 221.067C402.325 221.067 411.62 230.414 411.62 241.944C411.62 253.475 402.325 262.822 390.859 262.822Z" fill="url(#paint8_linear_187_1339)"/>
<path d="M428.94 297.824C428.94 313.348 352.778 313.348 352.778 297.824C352.778 282.3 369.828 269.718 390.859 269.718C411.89 269.718 428.94 282.3 428.94 297.824Z" fill="url(#paint9_linear_187_1339)"/>
</g>
<g style="mix-blend-mode:screen" opacity="0.5">
<path d="M390.859 222.123C401.727 222.123 410.571 231.015 410.571 241.944C410.571 252.873 401.727 261.766 390.859 261.766C379.991 261.766 371.148 252.873 371.148 241.944C371.148 231.015 379.991 222.123 390.859 222.123ZM390.859 221.064C379.393 221.064 370.098 230.411 370.098 241.941C370.098 253.471 379.393 262.818 390.859 262.818C402.325 262.818 411.62 253.471 411.62 241.941C411.62 230.411 402.325 221.064 390.859 221.064Z" fill="url(#paint10_linear_187_1339)"/>
<path d="M390.859 270.773C411.276 270.773 427.887 282.908 427.887 297.824C427.887 303.857 411.968 308.41 390.859 308.41C369.75 308.41 353.831 303.861 353.831 297.824C353.831 282.908 370.442 270.773 390.859 270.773ZM390.859 269.714C369.828 269.714 352.778 282.297 352.778 297.821C352.778 305.583 371.817 309.462 390.859 309.462C409.901 309.462 428.94 305.583 428.94 297.821C428.94 282.297 411.89 269.714 390.859 269.714Z" fill="url(#paint11_linear_187_1339)"/>
</g>
</g>
</g>
<path d="M196 255.761L198.905 238.24H203.135L200.811 252.321H208.092L207.51 255.761H196Z" fill="white"/>
<path d="M227.428 247.274C227.109 249.162 226.482 250.756 225.548 252.056C224.619 253.351 223.489 254.332 222.156 254.999C220.828 255.666 219.401 256 217.874 256C216.262 256 214.866 255.641 213.687 254.922C212.508 254.203 211.651 253.157 211.115 251.782C210.585 250.408 210.483 248.74 210.807 246.778C211.115 244.89 211.733 243.293 212.662 241.987C213.596 240.681 214.733 239.691 216.071 239.018C217.416 238.339 218.857 238 220.395 238C221.996 238 223.383 238.362 224.557 239.087C225.736 239.811 226.59 240.863 227.12 242.243C227.65 243.624 227.753 245.3 227.428 247.274ZM223.198 246.778C223.375 245.677 223.375 244.75 223.198 243.997C223.027 243.244 222.691 242.677 222.19 242.295C221.688 241.907 221.036 241.713 220.233 241.713C219.344 241.713 218.541 241.933 217.823 242.372C217.111 242.805 216.516 243.438 216.037 244.271C215.559 245.098 215.225 246.099 215.037 247.274C214.844 248.386 214.838 249.313 215.02 250.054C215.208 250.796 215.559 251.355 216.071 251.731C216.584 252.102 217.236 252.287 218.028 252.287C218.911 252.287 219.706 252.073 220.412 251.645C221.119 251.218 221.708 250.593 222.181 249.772C222.66 248.951 222.999 247.953 223.198 246.778Z" fill="white"/>
<path d="M235.532 255.761H228.969L231.874 238.24H238.24C240.018 238.24 241.499 238.602 242.684 239.326C243.875 240.045 244.715 241.077 245.205 242.423C245.7 243.763 245.794 245.36 245.487 247.214C245.191 249.005 244.595 250.539 243.701 251.817C242.812 253.094 241.673 254.072 240.283 254.751C238.893 255.424 237.309 255.761 235.532 255.761ZM233.788 252.15H235.796C236.776 252.15 237.642 251.973 238.394 251.62C239.152 251.261 239.779 250.687 240.274 249.9C240.77 249.107 241.123 248.067 241.334 246.778C241.539 245.546 241.53 244.573 241.308 243.86C241.092 243.142 240.67 242.628 240.043 242.32C239.423 242.007 238.611 241.85 237.608 241.85H235.506L233.788 252.15Z" fill="white"/>
<path d="M254.163 238.24L251.258 255.761H247.028L249.933 238.24H254.163Z" fill="white"/>
<path d="M265.871 243.527C265.916 242.882 265.745 242.383 265.358 242.03C264.976 241.676 264.372 241.499 263.546 241.499C262.999 241.499 262.532 241.57 262.145 241.713C261.757 241.85 261.453 242.044 261.231 242.295C261.008 242.54 260.869 242.825 260.812 243.15C260.761 243.407 260.775 243.635 260.855 243.835C260.934 244.034 261.074 244.211 261.273 244.365C261.478 244.519 261.732 244.653 262.034 244.767C262.341 244.881 262.686 244.981 263.068 245.067L264.503 245.409C265.335 245.597 266.056 245.848 266.665 246.162C267.281 246.47 267.779 246.843 268.161 247.282C268.542 247.716 268.804 248.215 268.947 248.78C269.089 249.344 269.101 249.977 268.981 250.679C268.799 251.785 268.363 252.735 267.674 253.528C266.99 254.32 266.096 254.928 264.99 255.35C263.891 255.772 262.612 255.983 261.154 255.983C259.695 255.983 258.456 255.763 257.436 255.324C256.422 254.879 255.687 254.209 255.232 253.314C254.776 252.418 254.653 251.289 254.864 249.926H258.906C258.844 250.491 258.915 250.961 259.12 251.338C259.331 251.714 259.655 251.999 260.094 252.193C260.533 252.387 261.062 252.484 261.683 252.484C262.253 252.484 262.752 252.407 263.179 252.253C263.612 252.099 263.956 251.885 264.213 251.611C264.475 251.338 264.634 251.024 264.691 250.67C264.748 250.345 264.694 250.063 264.529 249.823C264.369 249.584 264.096 249.376 263.709 249.199C263.327 249.022 262.826 248.862 262.205 248.72L260.453 248.292C259.006 247.938 257.909 247.374 257.163 246.598C256.422 245.822 256.16 244.77 256.377 243.441C256.559 242.352 257.009 241.399 257.727 240.584C258.45 239.768 259.365 239.135 260.47 238.684C261.581 238.228 262.803 238 264.136 238C265.492 238 266.631 238.231 267.554 238.693C268.483 239.149 269.152 239.794 269.562 240.626C269.978 241.453 270.098 242.42 269.921 243.527H265.871Z" fill="white"/>
<path d="M196.382 271.132C196.382 261.005 188.172 252.795 178.045 252.795C167.918 252.795 159.708 261.005 159.708 271.132C159.708 281.259 167.918 289.469 178.045 289.469C188.172 289.469 196.382 281.259 196.382 271.132Z" fill="#DCDEE3"/>
<path d="M196.382 271.132C196.382 261.005 188.172 252.795 178.045 252.795C167.918 252.795 159.708 261.005 159.708 271.132C159.708 281.259 167.918 289.469 178.045 289.469C188.172 289.469 196.382 281.259 196.382 271.132Z" fill="url(#paint12_linear_187_1339)"/>
<path d="M182.255 261.408C181.495 261.408 180.853 261.543 180.197 261.826C179.541 262.11 178.96 262.513 178.438 263.035L176.738 264.93L178.572 266.81L180.317 264.87C180.57 264.602 180.868 264.408 181.196 264.258C181.524 264.109 181.912 264.079 182.24 264.05H184.79V272.391H182.225C181.897 272.376 181.509 272.316 181.181 272.182C180.853 272.047 180.555 271.839 180.302 271.57L177.275 268.451C176.768 267.929 176.187 267.541 175.531 267.258C174.875 266.974 174.219 266.825 173.473 266.84H168.329V280.493H173.518C174.219 280.493 174.904 280.359 175.546 280.075C176.202 279.792 176.783 279.389 177.305 278.852L178.647 277.315L176.813 275.435L175.426 277.016C175.173 277.285 174.875 277.479 174.547 277.628C174.219 277.762 173.905 277.807 173.503 277.837H170.953V269.496H173.503C173.831 269.496 174.219 269.57 174.547 269.705C174.875 269.839 175.173 270.048 175.441 270.317L178.468 273.435C178.96 273.957 179.556 274.36 180.197 274.629C180.853 274.912 181.539 275.047 182.24 275.047H187.414V261.408H182.255Z" fill="#9FA7B6"/>
<path d="M294.036 302.514C294.036 289.507 283.492 278.963 270.485 278.963C257.478 278.963 246.934 289.507 246.934 302.514C246.934 315.521 257.478 326.065 270.485 326.065C283.492 326.065 294.036 315.521 294.036 302.514Z" fill="#DCDEE3"/>
<path d="M294.036 302.514C294.036 289.507 283.492 278.963 270.485 278.963C257.478 278.963 246.934 289.507 246.934 302.514C246.934 315.521 257.478 326.065 270.485 326.065C283.492 326.065 294.036 315.521 294.036 302.514Z" fill="url(#paint13_linear_187_1339)"/>
<path d="M275.892 290.025C274.915 290.025 274.092 290.198 273.249 290.562C272.407 290.926 271.66 291.444 270.99 292.114L268.807 294.548L271.162 296.963L273.403 294.472C273.728 294.127 274.111 293.878 274.532 293.686C274.954 293.494 275.452 293.456 275.873 293.418H279.147V304.131H275.854C275.432 304.112 274.935 304.035 274.513 303.862C274.092 303.69 273.709 303.422 273.383 303.077L269.496 299.071C268.845 298.4 268.098 297.902 267.255 297.538C266.413 297.174 265.57 296.982 264.613 297.001H258.006V314.537H264.67C265.57 314.537 266.451 314.365 267.275 314.001C268.117 313.636 268.864 313.119 269.534 312.429L271.258 310.455L268.902 308.04L267.121 310.072C266.796 310.417 266.413 310.666 265.992 310.858C265.57 311.03 265.168 311.088 264.651 311.126H261.376V300.413H264.651C265.072 300.413 265.57 300.509 265.992 300.681C266.413 300.854 266.796 301.122 267.141 301.467L271.028 305.472C271.66 306.143 272.426 306.66 273.249 307.005C274.092 307.37 274.973 307.542 275.873 307.542H282.518V290.025H275.892Z" fill="#9FA7B6"/>
<path d="M158.329 318.542L158.329 324.779C158.329 325.739 159.222 326.517 160.326 326.517L193.418 326.517C194.522 326.517 195.416 325.739 195.416 324.779L195.416 318.542C195.416 317.582 194.522 316.804 193.418 316.804L160.326 316.804C159.222 316.804 158.329 317.582 158.329 318.542Z" fill="url(#paint14_linear_187_1339)"/>
<path d="M154.803 309.554L154.803 315.224C154.803 316.097 155.675 316.804 156.753 316.804L189.057 316.804C190.134 316.804 191.007 316.097 191.007 315.224L191.007 309.554C191.007 308.681 190.134 307.974 189.057 307.974L156.753 307.974C155.675 307.974 154.803 308.681 154.803 309.554Z" fill="url(#paint15_linear_187_1339)"/>
<path d="M163.627 300.724L163.627 306.393C163.627 307.266 164.5 307.974 165.577 307.974L197.881 307.974C198.959 307.974 199.832 307.266 199.832 306.393L199.832 300.724C199.832 299.851 198.959 299.143 197.881 299.143L165.577 299.143C164.5 299.143 163.627 299.851 163.627 300.724Z" fill="url(#paint16_linear_187_1339)"/>
<path d="M129.467 322.412L133.63 326.574C134.271 327.215 135.415 327.109 136.187 326.337L159.325 303.199C160.097 302.427 160.203 301.283 159.562 300.642L155.399 296.48C154.758 295.838 153.614 295.944 152.842 296.716L129.704 319.854C128.932 320.626 128.826 321.77 129.467 322.412Z" fill="url(#paint17_linear_187_1339)"/>
<path d="M158.329 291.169L158.329 297.405C158.329 298.365 159.222 299.143 160.326 299.143L193.418 299.143C194.522 299.143 195.416 298.365 195.416 297.405L195.416 291.169C195.416 290.208 194.522 289.43 193.418 289.43L160.326 289.43C159.222 289.43 158.329 290.208 158.329 291.169Z" fill="url(#paint18_linear_187_1339)"/>
<path fill-rule="evenodd" clip-rule="evenodd" d="M408.916 134.168C419.951 134.168 428.896 143.113 428.896 154.148C428.896 163.021 423.111 170.544 415.107 173.15C414.458 173.361 413.996 173.952 413.996 174.634V187.663C413.996 189.058 412.258 189.698 411.354 188.636L399.444 174.655C399.159 174.32 398.742 174.128 398.302 174.128H362.861C351.826 174.128 342.881 165.182 342.881 154.148C342.881 143.113 351.826 134.168 362.861 134.168H408.916Z" fill="url(#paint19_linear_187_1339)"/>
<circle cx="366.814" cy="154.609" r="4.74099" fill="white"/>
<circle cx="387.135" cy="154.609" r="4.74099" fill="white"/>
<circle cx="407.452" cy="154.609" r="4.74099" fill="white"/>
<g filter="url(#filter3_b_187_1339)">
<g opacity="0.45">
<path fill-rule="evenodd" clip-rule="evenodd" d="M43.6154 108C32.5808 108 23.6355 116.945 23.6355 127.98C23.6355 136.854 29.4205 144.376 37.4249 146.982C38.0734 147.193 38.536 147.784 38.536 148.466V161.495C38.536 162.89 40.2733 163.529 41.1778 162.467L53.0871 148.487C53.3721 148.152 53.7895 147.96 54.229 147.96H89.6708C100.705 147.96 109.651 139.014 109.651 127.98C109.651 116.945 100.705 108 89.6708 108H43.6154Z" fill="#9FA7B6"/>
<path d="M53.0871 148.487L53.658 148.973L53.0871 148.487ZM41.1778 162.467L41.7488 162.954L41.1778 162.467ZM37.4249 146.982L37.1928 147.695L37.4249 146.982ZM24.3855 127.98C24.3855 117.359 32.995 108.75 43.6154 108.75V107.25C32.1666 107.25 22.8855 116.531 22.8855 127.98H24.3855ZM37.6571 146.269C29.9524 143.761 24.3855 136.519 24.3855 127.98H22.8855C22.8855 137.188 28.8887 144.992 37.1928 147.695L37.6571 146.269ZM39.286 161.495V148.466H37.786V161.495H39.286ZM52.5162 148.001L40.6069 161.981L41.7488 162.954L53.658 148.973L52.5162 148.001ZM89.6708 147.21H54.229V148.71H89.6708V147.21ZM108.901 127.98C108.901 138.6 100.291 147.21 89.6708 147.21V148.71C101.12 148.71 110.401 139.429 110.401 127.98H108.901ZM89.6708 108.75C100.291 108.75 108.901 117.359 108.901 127.98H110.401C110.401 116.531 101.12 107.25 89.6708 107.25V108.75ZM43.6154 108.75H89.6708V107.25H43.6154V108.75ZM53.658 148.973C53.8005 148.806 54.0092 148.71 54.229 148.71V147.21C53.5697 147.21 52.9437 147.499 52.5162 148.001L53.658 148.973ZM37.786 161.495C37.786 163.587 40.392 164.547 41.7488 162.954L40.6069 161.981C40.1546 162.512 39.286 162.192 39.286 161.495H37.786ZM37.1928 147.695C37.5574 147.814 37.786 148.134 37.786 148.466H39.286C39.286 147.434 38.5894 146.572 37.6571 146.269L37.1928 147.695Z" fill="url(#paint20_linear_187_1339)"/>
</g>
<path opacity="0.45" fill-rule="evenodd" clip-rule="evenodd" d="M43.6154 108C32.5808 108 23.6355 116.945 23.6355 127.98C23.6355 136.854 29.4205 144.376 37.4249 146.982C38.0734 147.193 38.536 147.784 38.536 148.466V161.495C38.536 162.89 40.2733 163.529 41.1778 162.467L53.0871 148.487C53.3721 148.152 53.7895 147.96 54.229 147.96H89.6708C100.705 147.96 109.651 139.014 109.651 127.98C109.651 116.945 100.705 108 89.6708 108H43.6154Z" fill="url(#paint21_linear_187_1339)"/>
</g>
<circle cx="45.9854" cy="127.641" r="4.74099" fill="white"/>
<circle cx="66.3045" cy="127.641" r="4.74099" fill="white"/>
<circle cx="86.6238" cy="127.641" r="4.74099" fill="white"/>
<defs>
<filter id="filter0_b_187_1339" x="168.635" y="161.738" width="129.514" height="170.775" filterUnits="userSpaceOnUse" color-interpolation-filters="sRGB">
<feFlood flood-opacity="0" result="BackgroundImageFix"/>
<feGaussianBlur in="BackgroundImageFix" stdDeviation="6"/>
<feComposite in2="SourceAlpha" operator="in" result="effect1_backgroundBlur_187_1339"/>
<feBlend mode="normal" in="SourceGraphic" in2="effect1_backgroundBlur_187_1339" result="shape"/>
</filter>
<filter id="filter1_b_187_1339" x="15.0637" y="213.064" width="92.1616" height="104.404" filterUnits="userSpaceOnUse" color-interpolation-filters="sRGB">
<feFlood flood-opacity="0" result="BackgroundImageFix"/>
<feGaussianBlur in="BackgroundImageFix" stdDeviation="4"/>
<feComposite in2="SourceAlpha" operator="in" result="effect1_backgroundBlur_187_1339"/>
<feBlend mode="normal" in="SourceGraphic" in2="effect1_backgroundBlur_187_1339" result="shape"/>
</filter>
<filter id="filter2_b_187_1339" x="344.778" y="213.064" width="92.1616" height="104.404" filterUnits="userSpaceOnUse" color-interpolation-filters="sRGB">
<feFlood flood-opacity="0" result="BackgroundImageFix"/>
<feGaussianBlur in="BackgroundImageFix" stdDeviation="4"/>
<feComposite in2="SourceAlpha" operator="in" result="effect1_backgroundBlur_187_1339"/>
<feBlend mode="normal" in="SourceGraphic" in2="effect1_backgroundBlur_187_1339" result="shape"/>
</filter>
<filter id="filter3_b_187_1339" x="14.8855" y="99.2499" width="103.515" height="72.4993" filterUnits="userSpaceOnUse" color-interpolation-filters="sRGB">
<feFlood flood-opacity="0" result="BackgroundImageFix"/>
<feGaussianBlur in="BackgroundImageFix" stdDeviation="4"/>
<feComposite in2="SourceAlpha" operator="in" result="effect1_backgroundBlur_187_1339"/>
<feBlend mode="normal" in="SourceGraphic" in2="effect1_backgroundBlur_187_1339" result="shape"/>
</filter>
<linearGradient id="paint0_linear_187_1339" x1="171.461" y1="186.276" x2="263.925" y2="278.756" gradientUnits="userSpaceOnUse">
<stop stop-color="#374051"/>
<stop offset="1"/>
</linearGradient>
<linearGradient id="paint1_linear_187_1339" x1="187.144" y1="189.211" x2="279.624" y2="281.691" gradientUnits="userSpaceOnUse">
<stop stop-color="white"/>
<stop offset="1" stop-color="#AECFFF"/>
</linearGradient>
<linearGradient id="paint2_linear_187_1339" x1="30.6492" y1="220.139" x2="91.9764" y2="281.128" gradientUnits="userSpaceOnUse">
<stop stop-color="#374051"/>
<stop offset="1"/>
</linearGradient>
<linearGradient id="paint3_linear_187_1339" x1="46.4641" y1="227.179" x2="75.9888" y2="256.542" gradientUnits="userSpaceOnUse">
<stop stop-color="white"/>
<stop offset="0.2" stop-color="#F6F9FF"/>
<stop offset="0.52" stop-color="#DDEBFF"/>
<stop offset="0.92" stop-color="#B6D3FF"/>
<stop offset="1" stop-color="#AECFFF"/>
</linearGradient>
<linearGradient id="paint4_linear_187_1339" x1="39.301" y1="272.286" x2="83.2317" y2="315.973" gradientUnits="userSpaceOnUse">
<stop stop-color="white"/>
<stop offset="0.2" stop-color="#F6F9FF"/>
<stop offset="0.52" stop-color="#DDEBFF"/>
<stop offset="0.92" stop-color="#B6D3FF"/>
<stop offset="1" stop-color="#AECFFF"/>
</linearGradient>
<linearGradient id="paint5_linear_187_1339" x1="46.4641" y1="227.178" x2="75.9888" y2="256.542" gradientUnits="userSpaceOnUse">
<stop stop-color="#C5D4FF"/>
<stop offset="0.45" stop-color="#90A5FF"/>
<stop offset="0.81" stop-color="#6D86FF"/>
<stop offset="1" stop-color="#607BFF"/>
</linearGradient>
<linearGradient id="paint6_linear_187_1339" x1="39.3009" y1="272.286" x2="83.2317" y2="315.973" gradientUnits="userSpaceOnUse">
<stop stop-color="white"/>
<stop offset="0.45" stop-color="#90A5FF"/>
<stop offset="0.81" stop-color="#6D86FF"/>
<stop offset="1" stop-color="#607BFF"/>
</linearGradient>
<linearGradient id="paint7_linear_187_1339" x1="360.364" y1="220.139" x2="421.691" y2="281.128" gradientUnits="userSpaceOnUse">
<stop stop-color="#374051"/>
<stop offset="1"/>
</linearGradient>
<linearGradient id="paint8_linear_187_1339" x1="376.179" y1="227.179" x2="405.703" y2="256.542" gradientUnits="userSpaceOnUse">
<stop stop-color="white"/>
<stop offset="0.2" stop-color="#F6F9FF"/>
<stop offset="0.52" stop-color="#DDEBFF"/>
<stop offset="0.92" stop-color="#B6D3FF"/>
<stop offset="1" stop-color="#AECFFF"/>
</linearGradient>
<linearGradient id="paint9_linear_187_1339" x1="369.016" y1="272.286" x2="412.946" y2="315.973" gradientUnits="userSpaceOnUse">
<stop stop-color="white"/>
<stop offset="0.2" stop-color="#F6F9FF"/>
<stop offset="0.52" stop-color="#DDEBFF"/>
<stop offset="0.92" stop-color="#B6D3FF"/>
<stop offset="1" stop-color="#AECFFF"/>
</linearGradient>
<linearGradient id="paint10_linear_187_1339" x1="376.179" y1="227.178" x2="405.703" y2="256.542" gradientUnits="userSpaceOnUse">
<stop stop-color="#C5D4FF"/>
<stop offset="0.45" stop-color="#90A5FF"/>
<stop offset="0.81" stop-color="#6D86FF"/>
<stop offset="1" stop-color="#607BFF"/>
</linearGradient>
<linearGradient id="paint11_linear_187_1339" x1="369.016" y1="272.286" x2="412.946" y2="315.973" gradientUnits="userSpaceOnUse">
<stop stop-color="white"/>
<stop offset="0.45" stop-color="#90A5FF"/>
<stop offset="0.81" stop-color="#6D86FF"/>
<stop offset="1" stop-color="#607BFF"/>
</linearGradient>
<linearGradient id="paint12_linear_187_1339" x1="165.083" y1="258.164" x2="191.013" y2="284.094" gradientUnits="userSpaceOnUse">
<stop stop-color="#374051"/>
<stop offset="1"/>
</linearGradient>
<linearGradient id="paint13_linear_187_1339" x1="253.837" y1="285.858" x2="287.141" y2="319.162" gradientUnits="userSpaceOnUse">
<stop stop-color="#374051"/>
<stop offset="1"/>
</linearGradient>
<linearGradient id="paint14_linear_187_1339" x1="183.172" y1="304.943" x2="162.284" y2="328.942" gradientUnits="userSpaceOnUse">
<stop stop-color="#374051"/>
<stop offset="1"/>
</linearGradient>
<linearGradient id="paint15_linear_187_1339" x1="179.055" y1="297.191" x2="160.298" y2="320.332" gradientUnits="userSpaceOnUse">
<stop stop-color="#374051"/>
<stop offset="1"/>
</linearGradient>
<linearGradient id="paint16_linear_187_1339" x1="187.879" y1="288.36" x2="169.122" y2="311.502" gradientUnits="userSpaceOnUse">
<stop stop-color="#374051"/>
<stop offset="1"/>
</linearGradient>
<linearGradient id="paint17_linear_187_1339" x1="137.761" y1="295.964" x2="140.579" y2="326.457" gradientUnits="userSpaceOnUse">
<stop stop-color="#374051"/>
<stop offset="1"/>
</linearGradient>
<linearGradient id="paint18_linear_187_1339" x1="183.172" y1="277.569" x2="162.284" y2="301.568" gradientUnits="userSpaceOnUse">
<stop stop-color="#374051"/>
<stop offset="1"/>
</linearGradient>
<linearGradient id="paint19_linear_187_1339" x1="361.845" y1="141.399" x2="426.979" y2="174.6" gradientUnits="userSpaceOnUse">
<stop stop-color="#374051"/>
<stop offset="1"/>
</linearGradient>
<linearGradient id="paint20_linear_187_1339" x1="81.2047" y1="148.289" x2="56.2271" y2="108.372" gradientUnits="userSpaceOnUse">
<stop stop-color="#C8CCD3"/>
<stop offset="1" stop-color="#C8CCD3" stop-opacity="0.63"/>
</linearGradient>
<linearGradient id="paint21_linear_187_1339" x1="52.7587" y1="108" x2="89.4481" y2="163.018" gradientUnits="userSpaceOnUse">
<stop stop-color="white"/>
<stop offset="1" stop-color="#AECFFF"/>
</linearGradient>
<clipPath id="clip0_187_1339">
<rect width="120.372" height="104.671" fill="white" transform="translate(0.956787 207.438)"/>
</clipPath>
<clipPath id="clip1_187_1339">
<rect width="120.372" height="104.671" fill="white" transform="translate(330.671 207.438)"/>
</clipPath>
</defs>
</svg>
