<svg width="452" height="455" viewBox="0 0 452 455" fill="none" xmlns="http://www.w3.org/2000/svg">
<path opacity="0.5" d="M118.192 180.033C118.192 180.033 118.322 136.543 142.522 114.963C166.722 93.3836 205.838 105.247 223.407 108.7C223.407 108.7 187.952 107.836 161.144 132.049C134.337 156.262 118.192 180.033 118.192 180.033Z" fill="#384F79" stroke="#778AAC" stroke-width="3"/>
<path d="M312.663 231.162C312.663 173.709 266.088 127.134 208.635 127.134C151.182 127.134 104.606 173.709 104.606 231.162C104.606 288.615 151.182 335.19 208.635 335.19C266.088 335.19 312.663 288.615 312.663 231.162Z" fill="url(#paint0_linear_131_630)"/>
<g filter="url(#filter0_b_131_630)">
<g opacity="0.45">
<path d="M214.007 245.639L214.007 354.517C214.007 359.688 209.554 363.639 204.399 363.245C174.318 360.953 145.889 347.973 124.413 326.497C102.937 305.021 89.9566 276.591 87.6647 246.511C87.2711 241.356 91.2299 236.903 96.3926 236.903L205.263 236.903C210.086 236.903 213.999 240.816 213.999 245.639L214.007 245.639Z" fill="#9FA7B6"/>
</g>
<g style="mix-blend-mode:soft-light" opacity="0.5">
<path d="M214.007 245.639L214.007 354.517C214.007 359.688 209.554 363.639 204.399 363.245C174.318 360.953 145.889 347.973 124.413 326.497C102.937 305.021 89.9566 276.591 87.6647 246.511C87.2711 241.356 91.2299 236.903 96.3926 236.903L205.263 236.903C210.086 236.903 213.999 240.816 213.999 245.639L214.007 245.639Z" fill="url(#paint1_linear_131_630)"/>
</g>
<g style="mix-blend-mode:screen" opacity="0.5">
<path d="M205.101 360.652C204.931 360.652 204.769 360.652 204.6 360.637C175.044 358.391 147.224 345.604 126.265 324.653C105.306 303.693 92.5264 275.874 90.2807 246.318C90.1418 244.527 90.7515 242.768 91.9476 241.472C93.1128 240.221 94.6871 239.527 96.3926 239.527L205.263 239.527C208.636 239.527 211.383 242.274 211.383 245.646L211.383 354.517C211.383 357.897 208.566 360.652 205.101 360.652ZM205.101 363.276C209.947 363.276 214.007 359.448 214.007 354.517L214.007 245.646C214.007 240.823 210.094 236.911 205.271 236.911L96.4002 236.911C91.2299 236.911 87.2788 241.364 87.6724 246.518C89.9643 276.599 102.944 305.028 124.421 326.505C145.897 347.981 174.326 360.961 204.407 363.253C204.646 363.268 204.877 363.276 205.109 363.276L205.101 363.276Z" fill="url(#paint2_linear_131_630)"/>
</g>
</g>
<g filter="url(#filter1_b_131_630)">
<g opacity="0.6">
<path d="M268.39 192.137L313.584 252.313C316.758 256.554 322.769 256.554 325.944 252.313L371.138 192.137C375.324 186.554 371.634 178.244 364.948 178.244L347.846 178.244C347.846 178.244 344.482 165.516 338.642 156.456C332.802 147.395 302.304 116.032 280.891 105.578C259.477 95.1236 225.735 90.2449 206.268 91.6388C186.801 93.0327 151.112 103.656 151.112 108.366C151.112 108.366 201.902 96.821 243.255 120.911C281.539 143.214 291.681 178.244 291.681 178.244L274.58 178.244C267.894 178.244 264.204 186.554 268.39 192.137Z" fill="#9FA7B6"/>
</g>
<g style="mix-blend-mode:soft-light" opacity="0.5">
<path d="M268.39 192.137L313.584 252.313C316.758 256.554 322.769 256.554 325.944 252.313L371.138 192.137C375.324 186.554 371.634 178.244 364.948 178.244L347.846 178.244C347.846 178.244 344.482 165.516 338.642 156.456C332.802 147.395 302.304 116.032 280.891 105.578C259.477 95.1236 225.735 90.2449 206.268 91.6388C186.801 93.0327 151.112 103.656 151.112 108.366C151.112 108.366 201.902 96.821 243.255 120.911C281.539 143.214 291.681 178.244 291.681 178.244L274.58 178.244C267.894 178.244 264.204 186.554 268.39 192.137Z" fill="url(#paint3_linear_131_630)"/>
</g>
<path opacity="0.4" d="M291.681 178.244L293.122 177.826C293.253 178.279 293.164 178.768 292.88 179.145C292.597 179.522 292.153 179.744 291.681 179.744L274.58 179.744C271.924 179.744 269.813 181.38 268.778 183.706C267.741 186.037 267.856 188.924 269.589 191.236L291.681 178.244ZM291.681 178.244C293.122 177.826 293.122 177.826 293.121 177.825L293.121 177.822L293.119 177.815L293.112 177.791C293.106 177.771 293.097 177.743 293.086 177.706C293.064 177.633 293.031 177.526 292.987 177.389C292.899 177.113 292.767 176.712 292.586 176.197C292.224 175.167 291.666 173.682 290.878 171.833C289.302 168.137 286.801 162.988 283.091 157.138C275.671 145.436 263.403 130.912 244.01 119.615C223.023 107.389 199.695 104.231 181.687 104.105C172.672 104.042 164.961 104.738 159.5 105.451C158.388 105.596 157.369 105.742 156.451 105.882C156.818 105.7 157.208 105.514 157.62 105.324C161.181 103.685 166.177 101.895 171.822 100.195C183.121 96.7935 196.794 93.821 206.375 93.1349C215.954 92.4491 229.129 93.3052 242.593 95.6431C256.058 97.9814 269.697 101.782 280.232 106.926C290.73 112.051 303.575 122.378 314.584 132.637C325.604 142.907 334.569 152.906 337.381 157.269C340.213 161.662 342.469 166.989 344.025 171.261C344.799 173.388 345.394 175.236 345.795 176.551C345.995 177.207 346.146 177.73 346.247 178.087C346.297 178.265 346.335 178.402 346.36 178.494L346.388 178.596L346.394 178.621L346.396 178.626L346.396 178.627C346.396 178.627 346.396 178.627 346.396 178.627C346.57 179.285 347.166 179.744 347.846 179.744L364.948 179.744C367.603 179.744 369.714 181.38 370.749 183.706C371.787 186.037 371.671 188.925 369.938 191.237L324.744 251.413L324.743 251.415C322.169 254.854 317.359 254.854 314.785 251.415L314.783 251.413L269.59 191.237L291.681 178.244Z" stroke="#F4F5F8" stroke-width="3" stroke-linejoin="round"/>
</g>
<path d="M123.418 235.183C123.418 215.348 107.338 199.268 87.5029 199.268C67.6677 199.268 51.5881 215.348 51.5881 235.183C51.5881 255.018 67.6677 271.098 87.5029 271.098C107.338 271.098 123.418 255.018 123.418 235.183Z" fill="#DCDEE3"/>
<path d="M123.418 235.183C123.418 215.348 107.338 199.268 87.5029 199.268C67.6677 199.268 51.5881 215.348 51.5881 235.183C51.5881 255.018 67.6677 271.098 87.5029 271.098C107.338 271.098 123.418 255.018 123.418 235.183Z" fill="url(#paint4_linear_131_630)"/>
<path d="M95.7419 216.138C94.2525 216.138 92.9968 216.401 91.7119 216.956C90.4269 217.512 89.288 218.301 88.2659 219.324L84.9368 223.035L88.5288 226.718L91.9455 222.918C92.4419 222.392 93.026 222.012 93.6685 221.72C94.3109 221.428 95.0702 221.369 95.7127 221.311H100.706V237.648H95.6835C95.041 237.619 94.2817 237.502 93.6393 237.239C92.9968 236.976 92.4127 236.567 91.9163 236.041L85.9881 229.933C84.9952 228.91 83.8563 228.15 82.5713 227.594C81.2864 227.039 80.0015 226.747 78.5413 226.776H68.4663V253.518H78.6289C80.0015 253.518 81.3448 253.255 82.6005 252.699C83.8855 252.144 85.0244 251.355 86.0465 250.303L88.6748 247.293L85.0828 243.61L82.3669 246.708C81.8705 247.234 81.2864 247.614 80.6439 247.906C80.0015 248.169 79.3882 248.257 78.5997 248.316H73.606V231.978H78.5997C79.2422 231.978 80.0015 232.124 80.6439 232.387C81.2864 232.651 81.8705 233.06 82.3961 233.586L88.3243 239.694C89.288 240.717 90.4561 241.506 91.7119 242.032C92.9968 242.587 94.3401 242.85 95.7127 242.85H105.846V216.138H95.7419Z" fill="#C8CCD3"/>
<path d="M63.4246 345.591L63.4246 357.806C63.4246 359.687 65.1756 361.211 67.3372 361.211L132.152 361.211C134.314 361.211 136.065 359.687 136.065 357.806L136.065 345.591C136.065 343.71 134.314 342.186 132.152 342.186L67.3372 342.186C65.1756 342.186 63.4246 343.71 63.4246 345.591Z" fill="url(#paint5_linear_131_630)"/>
<path d="M56.5065 327.987L56.5065 339.091C56.5065 340.801 58.2157 342.186 60.3259 342.186L123.598 342.186C125.708 342.186 127.417 340.801 127.417 339.091L127.417 327.987C127.417 326.276 125.708 324.891 123.598 324.891L60.3259 324.891C58.2157 324.891 56.5065 326.276 56.5065 327.987Z" fill="url(#paint6_linear_131_630)"/>
<path d="M73.8016 310.691L73.8016 321.795C73.8016 323.506 75.5109 324.891 77.6211 324.891L140.893 324.891C143.003 324.891 144.712 323.506 144.712 321.795L144.712 310.691C144.712 308.981 143.003 307.596 140.893 307.596L77.6211 307.596C75.5109 307.596 73.8016 308.981 73.8016 310.691Z" fill="url(#paint7_linear_131_630)"/>
<path d="M6.8937 353.169L15.046 361.322C16.3017 362.577 18.543 362.37 20.0545 360.859L65.3741 315.539C66.8856 314.028 67.0928 311.786 65.8372 310.531L57.6848 302.378C56.4292 301.123 54.1878 301.33 52.6763 302.841L7.35673 348.161C5.84526 349.672 5.63805 351.914 6.8937 353.169Z" fill="url(#paint8_linear_131_630)"/>
<path d="M63.4246 291.976L63.4246 304.191C63.4246 306.072 65.1756 307.596 67.3372 307.596L132.152 307.596C134.314 307.596 136.065 306.072 136.065 304.191L136.065 291.976C136.065 290.095 134.314 288.571 132.152 288.571L67.3372 288.571C65.1756 288.571 63.4246 290.095 63.4246 291.976Z" fill="url(#paint9_linear_131_630)"/>
<path d="M51.3179 274.371L51.3179 285.475C51.3179 287.186 53.0689 288.571 55.2306 288.571L120.045 288.571C122.207 288.571 123.958 287.186 123.958 285.475L123.958 274.371C123.958 272.661 122.207 271.276 120.045 271.276L55.2306 271.276C53.0689 271.276 51.3179 272.661 51.3179 274.371Z" fill="url(#paint10_linear_131_630)"/>
<path d="M184.424 240.038C178.337 240.038 173.368 238.034 169.515 234.026C165.663 230.018 163.737 224.545 163.737 217.607C163.737 213.06 164.623 209.09 166.395 205.698C168.167 202.307 170.594 199.724 173.676 197.952C176.835 196.102 180.418 195.177 184.424 195.177C190.588 195.177 195.596 197.219 199.449 201.305C203.301 205.313 205.227 210.747 205.227 217.607C205.227 224.545 203.301 230.018 199.449 234.026C195.596 238.034 190.588 240.038 184.424 240.038ZM231.378 197.526C231.937 196.707 232.864 196.217 233.856 196.217H243.234C245.644 196.217 247.071 198.917 245.711 200.909L194.563 275.845C194.004 276.663 193.077 277.153 192.085 277.153H182.707C180.297 277.153 178.87 274.453 180.23 272.462L231.378 197.526ZM184.424 229.054C186.505 229.054 188.161 228.129 189.394 226.279C190.627 224.429 191.243 221.539 191.243 217.607C191.243 213.676 190.627 210.786 189.394 208.936C188.161 207.086 186.505 206.161 184.424 206.161C182.421 206.161 180.764 207.124 179.455 209.051C178.222 210.901 177.605 213.753 177.605 217.607C177.605 221.462 178.222 224.352 179.455 226.279C180.764 228.129 182.421 229.054 184.424 229.054ZM241.517 278.194C235.353 278.194 230.345 276.19 226.492 272.181C222.717 268.173 220.829 262.7 220.829 255.763C220.829 248.903 222.756 243.468 226.608 239.46C230.46 235.375 235.43 233.332 241.517 233.332C247.681 233.332 252.689 235.375 256.541 239.46C260.394 243.468 262.32 248.903 262.32 255.763C262.32 262.7 260.394 268.173 256.541 272.181C252.689 276.19 247.681 278.194 241.517 278.194ZM241.517 267.21C243.597 267.21 245.254 266.285 246.486 264.435C247.719 262.585 248.336 259.694 248.336 255.763C248.336 251.832 247.719 248.941 246.486 247.091C245.254 245.241 243.597 244.316 241.517 244.316C239.436 244.316 237.78 245.241 236.547 247.091C235.314 248.941 234.698 251.832 234.698 255.763C234.698 259.694 235.314 262.585 236.547 264.435C237.78 266.285 239.436 267.21 241.517 267.21Z" fill="white"/>
<path fill-rule="evenodd" clip-rule="evenodd" d="M334.96 239.335V226.579C334.96 225.474 335.855 224.579 336.96 224.579H430.146C431.251 224.579 432.146 225.474 432.146 226.579V239.335C432.146 240.439 431.251 241.335 430.146 241.335H336.96C335.855 241.335 334.96 240.439 334.96 239.335ZM384.183 243.461H426.883C427.981 243.461 428.868 244.333 428.843 245.431C428.795 247.526 428.652 251.168 428.225 255.749H439.591C443.705 255.749 447.267 258.985 447.358 263.299C447.521 271.092 446.851 282.146 441.919 291.388C439.41 296.09 435.773 300.371 430.584 303.451C425.4 306.529 418.93 308.252 410.995 308.252V306.756C404.61 314.318 395.944 319.423 384.183 319.423C371.414 319.423 362.293 313.406 355.778 304.759V307.135C347.843 307.135 341.374 305.412 336.189 302.334C331.001 299.254 327.363 294.973 324.854 290.271C319.922 281.029 319.253 269.975 319.416 262.182C319.506 257.868 323.068 254.632 327.182 254.632H340.04C339.69 250.576 339.566 247.353 339.522 245.431C339.497 244.334 340.384 243.461 341.482 243.461H384.183ZM416.373 298.966C420.341 298.419 423.496 297.266 426.022 295.767C429.592 293.647 432.169 290.678 434.035 287.181C437.65 280.407 438.492 271.854 438.44 264.686H427.14C425.526 275.407 422.405 288.355 416.373 298.966ZM341.061 263.569C342.577 274.171 345.564 287.181 351.442 297.976C346.979 297.497 343.494 296.278 340.751 294.65C337.181 292.53 334.605 289.561 332.738 286.064C329.124 279.29 328.282 270.737 328.334 263.569H341.061ZM351.792 347.9V358.422C351.792 359.527 352.688 360.422 353.792 360.422H413.466C414.571 360.422 415.466 359.527 415.466 358.422V347.9C415.466 346.796 414.571 345.9 413.466 345.9H400.682V337.151C400.682 336.046 399.787 335.151 398.682 335.151H368.091C366.987 335.151 366.091 336.046 366.091 337.151V345.9H353.792C352.688 345.9 351.792 346.796 351.792 347.9ZM375.246 323.432V331.72C375.246 332.824 376.141 333.72 377.246 333.72H390.002C391.107 333.72 392.002 332.824 392.002 331.72V323.432C392.002 322.327 391.107 321.432 390.002 321.432H377.246C376.141 321.432 375.246 322.327 375.246 323.432Z" fill="url(#paint11_linear_131_630)"/>
<path d="M352.255 265.88L354.768 250.729H358.426L356.416 262.906H362.712L362.209 265.88H352.255Z" fill="#C8CCD3"/>
<path d="M379.433 258.541C379.157 260.174 378.615 261.552 377.807 262.677C377.004 263.796 376.026 264.645 374.874 265.222C373.726 265.799 372.492 266.087 371.171 266.087C369.777 266.087 368.57 265.776 367.551 265.155C366.531 264.534 365.789 263.628 365.326 262.44C364.868 261.251 364.779 259.809 365.06 258.112C365.326 256.479 365.861 255.098 366.664 253.969C367.472 252.84 368.455 251.984 369.612 251.402C370.775 250.815 372.021 250.521 373.351 250.521C374.736 250.521 375.935 250.835 376.95 251.461C377.97 252.087 378.709 252.997 379.167 254.191C379.625 255.384 379.714 256.835 379.433 258.541ZM375.775 258.112C375.928 257.16 375.928 256.359 375.775 255.708C375.627 255.056 375.337 254.566 374.903 254.235C374.47 253.9 373.906 253.732 373.211 253.732C372.442 253.732 371.748 253.922 371.127 254.302C370.511 254.677 369.997 255.224 369.583 255.944C369.169 256.659 368.881 257.525 368.718 258.541C368.551 259.503 368.546 260.304 368.703 260.945C368.866 261.587 369.169 262.07 369.612 262.395C370.056 262.716 370.62 262.876 371.304 262.876C372.068 262.876 372.755 262.691 373.366 262.321C373.977 261.952 374.487 261.412 374.896 260.701C375.31 259.991 375.603 259.128 375.775 258.112Z" fill="#C8CCD3"/>
<path d="M386.441 265.88H380.766L383.278 250.729H388.783C390.32 250.729 391.601 251.042 392.626 251.668C393.656 252.29 394.382 253.182 394.806 254.346C395.234 255.505 395.316 256.886 395.05 258.489C394.794 260.038 394.279 261.365 393.505 262.469C392.737 263.574 391.751 264.42 390.549 265.007C389.347 265.589 387.978 265.88 386.441 265.88ZM384.933 262.758H386.67C387.517 262.758 388.266 262.605 388.916 262.299C389.572 261.989 390.113 261.493 390.542 260.812C390.971 260.127 391.276 259.227 391.458 258.112C391.636 257.047 391.628 256.206 391.436 255.589C391.249 254.968 390.884 254.524 390.343 254.257C389.806 253.986 389.104 253.851 388.236 253.851H386.419L384.933 262.758Z" fill="#C8CCD3"/>
<path d="M402.553 250.729L400.04 265.88H396.382L398.895 250.729H402.553Z" fill="#C8CCD3"/>
<path d="M412.677 255.301C412.716 254.743 412.568 254.312 412.233 254.006C411.903 253.7 411.381 253.547 410.667 253.547C410.194 253.547 409.79 253.609 409.455 253.732C409.12 253.851 408.856 254.018 408.664 254.235C408.472 254.447 408.351 254.694 408.302 254.975C408.258 255.197 408.27 255.394 408.339 255.567C408.408 255.74 408.529 255.892 408.701 256.026C408.879 256.159 409.098 256.275 409.359 256.373C409.625 256.472 409.923 256.558 410.253 256.632L411.494 256.928C412.214 257.091 412.837 257.308 413.364 257.579C413.896 257.846 414.327 258.169 414.657 258.548C414.987 258.923 415.214 259.355 415.337 259.843C415.46 260.331 415.47 260.879 415.367 261.485C415.209 262.442 414.832 263.264 414.236 263.949C413.645 264.635 412.871 265.16 411.916 265.525C410.965 265.89 409.859 266.072 408.598 266.072C407.337 266.072 406.265 265.882 405.383 265.503C404.506 265.118 403.871 264.538 403.477 263.764C403.083 262.99 402.977 262.013 403.159 260.834H406.654C406.6 261.323 406.662 261.73 406.839 262.055C407.021 262.381 407.302 262.627 407.681 262.795C408.061 262.963 408.519 263.047 409.056 263.047C409.549 263.047 409.98 262.98 410.349 262.847C410.724 262.714 411.022 262.529 411.243 262.292C411.47 262.055 411.608 261.784 411.657 261.478C411.706 261.197 411.66 260.953 411.517 260.746C411.379 260.539 411.142 260.359 410.807 260.206C410.477 260.053 410.044 259.915 409.507 259.791L407.992 259.421C406.741 259.116 405.792 258.627 405.147 257.957C404.506 257.286 404.28 256.376 404.467 255.227C404.625 254.285 405.014 253.461 405.635 252.756C406.26 252.05 407.051 251.503 408.007 251.113C408.967 250.719 410.024 250.521 411.177 250.521C412.349 250.521 413.335 250.721 414.133 251.121C414.936 251.515 415.514 252.073 415.869 252.793C416.229 253.508 416.332 254.344 416.18 255.301H412.677Z" fill="#C8CCD3"/>
<g filter="url(#filter2_b_131_630)">
<g opacity="0.6">
<path d="M317.823 332.006C310.663 332.006 304.86 326.155 304.86 318.937C304.86 311.719 310.663 305.868 317.823 305.868C324.982 305.868 330.786 311.719 330.786 318.937C330.786 326.155 324.982 332.006 317.823 332.006Z" fill="#9FA7B6"/>
<path d="M341.601 353.917C341.601 363.635 294.046 363.635 294.046 353.917C294.046 344.199 304.692 336.323 317.823 336.323C330.955 336.323 341.601 344.199 341.601 353.917Z" fill="#9FA7B6"/>
</g>
<g style="mix-blend-mode:soft-light" opacity="0.5">
<path d="M317.823 332.006C310.663 332.006 304.86 326.155 304.86 318.937C304.86 311.719 310.663 305.868 317.823 305.868C324.982 305.868 330.786 311.719 330.786 318.937C330.786 326.155 324.982 332.006 317.823 332.006Z" fill="#9FA7B6"/>
<path d="M341.601 353.917C341.601 363.635 294.046 363.635 294.046 353.917C294.046 344.199 304.692 336.323 317.823 336.323C330.955 336.323 341.601 344.199 341.601 353.917Z" fill="#9FA7B6"/>
</g>
<g style="mix-blend-mode:screen" opacity="0.5">
<path d="M317.823 306.529C324.609 306.529 330.131 312.096 330.131 318.937C330.131 325.779 324.609 331.346 317.823 331.346C311.037 331.346 305.515 325.779 305.515 318.937C305.515 312.096 311.037 306.529 317.823 306.529ZM317.823 305.866C310.663 305.866 304.86 311.717 304.86 318.935C304.86 326.153 310.663 332.004 317.823 332.004C324.982 332.004 330.786 326.153 330.786 318.935C330.786 311.717 324.982 305.866 317.823 305.866Z" fill="#9FA7B6"/>
<path d="M317.823 336.984C330.571 336.984 340.943 344.58 340.943 353.918C340.943 357.694 331.004 360.544 317.823 360.544C304.643 360.544 294.703 357.696 294.703 353.918C294.703 344.58 305.075 336.984 317.823 336.984ZM317.823 336.321C304.692 336.321 294.046 344.198 294.046 353.916C294.046 358.775 305.934 361.203 317.823 361.203C329.713 361.203 341.601 358.775 341.601 353.916C341.601 344.198 330.955 336.321 317.823 336.321Z" fill="#9FA7B6"/>
</g>
</g>
<g filter="url(#filter3_b_131_630)">
<g opacity="0.6">
<path d="M284.661 332.006C277.502 332.006 271.698 326.155 271.698 318.937C271.698 311.719 277.502 305.868 284.661 305.868C291.821 305.868 297.624 311.719 297.624 318.937C297.624 326.155 291.821 332.006 284.661 332.006Z" fill="#9FA7B6"/>
<path d="M308.439 353.917C308.439 363.635 260.884 363.635 260.884 353.917C260.884 344.199 271.53 336.323 284.662 336.323C297.793 336.323 308.439 344.199 308.439 353.917Z" fill="#9FA7B6"/>
</g>
<g style="mix-blend-mode:soft-light" opacity="0.5">
<path d="M284.661 332.006C277.502 332.006 271.698 326.155 271.698 318.937C271.698 311.719 277.502 305.868 284.661 305.868C291.821 305.868 297.624 311.719 297.624 318.937C297.624 326.155 291.821 332.006 284.661 332.006Z" fill="#9FA7B6"/>
<path d="M308.439 353.917C308.439 363.635 260.884 363.635 260.884 353.917C260.884 344.199 271.53 336.323 284.662 336.323C297.793 336.323 308.439 344.199 308.439 353.917Z" fill="#9FA7B6"/>
</g>
<g style="mix-blend-mode:screen" opacity="0.5">
<path d="M284.661 306.529C291.447 306.529 296.969 312.096 296.969 318.937C296.969 325.779 291.447 331.346 284.661 331.346C277.875 331.346 272.353 325.779 272.353 318.937C272.353 312.096 277.875 306.529 284.661 306.529ZM284.661 305.866C277.502 305.866 271.698 311.717 271.698 318.935C271.698 326.153 277.502 332.004 284.661 332.004C291.821 332.004 297.624 326.153 297.624 318.935C297.624 311.717 291.821 305.866 284.661 305.866Z" fill="#9FA7B6"/>
<path d="M284.662 336.984C297.41 336.984 307.781 344.58 307.781 353.918C307.781 357.694 297.842 360.544 284.662 360.544C271.481 360.544 261.542 357.696 261.542 353.918C261.542 344.58 271.914 336.984 284.662 336.984ZM284.662 336.321C271.53 336.321 260.884 344.198 260.884 353.916C260.884 358.775 272.772 361.203 284.662 361.203C296.551 361.203 308.439 358.775 308.439 353.916C308.439 344.198 297.793 336.321 284.662 336.321Z" fill="#9FA7B6"/>
</g>
</g>
<g filter="url(#filter4_b_131_630)">
<g opacity="0.6">
<path d="M251.506 332.006C244.347 332.006 238.543 326.155 238.543 318.937C238.543 311.719 244.347 305.868 251.506 305.868C258.666 305.868 264.469 311.719 264.469 318.937C264.469 326.155 258.666 332.006 251.506 332.006Z" fill="#9FA7B6"/>
<path d="M275.284 353.918C275.284 363.635 227.729 363.635 227.729 353.918C227.729 344.2 238.375 336.323 251.507 336.323C264.638 336.323 275.284 344.2 275.284 353.918Z" fill="#9FA7B6"/>
</g>
<g style="mix-blend-mode:soft-light" opacity="0.5">
<path d="M251.506 332.006C244.347 332.006 238.543 326.155 238.543 318.937C238.543 311.719 244.347 305.868 251.506 305.868C258.666 305.868 264.469 311.719 264.469 318.937C264.469 326.155 258.666 332.006 251.506 332.006Z" fill="#9FA7B6"/>
<path d="M275.284 353.918C275.284 363.635 227.729 363.635 227.729 353.918C227.729 344.2 238.375 336.323 251.507 336.323C264.638 336.323 275.284 344.2 275.284 353.918Z" fill="#9FA7B6"/>
</g>
<g style="mix-blend-mode:screen" opacity="0.5">
<path d="M251.506 306.529C258.292 306.529 263.814 312.096 263.814 318.937C263.814 325.779 258.292 331.346 251.506 331.346C244.72 331.346 239.198 325.779 239.198 318.937C239.198 312.096 244.72 306.529 251.506 306.529ZM251.506 305.866C244.347 305.866 238.543 311.718 238.543 318.935C238.543 326.153 244.347 332.005 251.506 332.005C258.666 332.005 264.469 326.153 264.469 318.935C264.469 311.718 258.666 305.866 251.506 305.866Z" fill="#9FA7B6"/>
<path d="M251.507 336.984C264.255 336.984 274.626 344.58 274.626 353.918C274.626 357.695 264.687 360.544 251.507 360.544C238.326 360.544 228.387 357.697 228.387 353.918C228.387 344.58 238.759 336.984 251.507 336.984ZM251.507 336.321C238.375 336.321 227.729 344.198 227.729 353.916C227.729 358.775 239.617 361.203 251.507 361.203C263.396 361.203 275.284 358.775 275.284 353.916C275.284 344.198 264.638 336.321 251.507 336.321Z" fill="#9FA7B6"/>
</g>
</g>
<defs>
<filter id="filter0_b_131_630" x="67.6377" y="216.903" width="166.369" height="166.373" filterUnits="userSpaceOnUse" color-interpolation-filters="sRGB">
<feFlood flood-opacity="0" result="BackgroundImageFix"/>
<feGaussianBlur in="BackgroundImageFix" stdDeviation="10"/>
<feComposite in2="SourceAlpha" operator="in" result="effect1_backgroundBlur_131_630"/>
<feBlend mode="normal" in="SourceGraphic" in2="effect1_backgroundBlur_131_630" result="shape"/>
</filter>
<filter id="filter1_b_131_630" x="143.112" y="83.4055" width="237.8" height="180.088" filterUnits="userSpaceOnUse" color-interpolation-filters="sRGB">
<feFlood flood-opacity="0" result="BackgroundImageFix"/>
<feGaussianBlur in="BackgroundImageFix" stdDeviation="4"/>
<feComposite in2="SourceAlpha" operator="in" result="effect1_backgroundBlur_131_630"/>
<feBlend mode="normal" in="SourceGraphic" in2="effect1_backgroundBlur_131_630" result="shape"/>
</filter>
<filter id="filter2_b_131_630" x="286.046" y="297.866" width="63.5547" height="71.3397" filterUnits="userSpaceOnUse" color-interpolation-filters="sRGB">
<feFlood flood-opacity="0" result="BackgroundImageFix"/>
<feGaussianBlur in="BackgroundImageFix" stdDeviation="4"/>
<feComposite in2="SourceAlpha" operator="in" result="effect1_backgroundBlur_131_630"/>
<feBlend mode="normal" in="SourceGraphic" in2="effect1_backgroundBlur_131_630" result="shape"/>
</filter>
<filter id="filter3_b_131_630" x="252.884" y="297.866" width="63.5547" height="71.3397" filterUnits="userSpaceOnUse" color-interpolation-filters="sRGB">
<feFlood flood-opacity="0" result="BackgroundImageFix"/>
<feGaussianBlur in="BackgroundImageFix" stdDeviation="4"/>
<feComposite in2="SourceAlpha" operator="in" result="effect1_backgroundBlur_131_630"/>
<feBlend mode="normal" in="SourceGraphic" in2="effect1_backgroundBlur_131_630" result="shape"/>
</filter>
<filter id="filter4_b_131_630" x="219.729" y="297.866" width="63.5547" height="71.3397" filterUnits="userSpaceOnUse" color-interpolation-filters="sRGB">
<feFlood flood-opacity="0" result="BackgroundImageFix"/>
<feGaussianBlur in="BackgroundImageFix" stdDeviation="4"/>
<feComposite in2="SourceAlpha" operator="in" result="effect1_backgroundBlur_131_630"/>
<feBlend mode="normal" in="SourceGraphic" in2="effect1_backgroundBlur_131_630" result="shape"/>
</filter>
<linearGradient id="paint0_linear_131_630" x1="135.073" y1="157.6" x2="282.197" y2="304.724" gradientUnits="userSpaceOnUse">
<stop stop-color="#374051"/>
<stop offset="1"/>
</linearGradient>
<linearGradient id="paint1_linear_131_630" x1="228.53" y1="343.582" x2="107.327" y2="222.372" gradientUnits="userSpaceOnUse">
<stop stop-color="white"/>
<stop offset="0.2" stop-color="#F6F9FF"/>
<stop offset="0.52" stop-color="#DDEBFF"/>
<stop offset="0.92" stop-color="#B6D3FF"/>
<stop offset="1" stop-color="#AECFFF"/>
</linearGradient>
<linearGradient id="paint2_linear_131_630" x1="228.53" y1="343.582" x2="107.327" y2="222.372" gradientUnits="userSpaceOnUse">
<stop stop-color="#C5D4FF"/>
<stop offset="0.45" stop-color="#90A5FF"/>
<stop offset="0.81" stop-color="#6D86FF"/>
<stop offset="1" stop-color="#607BFF"/>
</linearGradient>
<linearGradient id="paint3_linear_131_630" x1="358.579" y1="217.324" x2="275.49" y2="123.328" gradientUnits="userSpaceOnUse">
<stop stop-color="white"/>
<stop offset="1" stop-color="#AECFFF"/>
</linearGradient>
<linearGradient id="paint4_linear_131_630" x1="62.1148" y1="209.783" x2="112.903" y2="260.571" gradientUnits="userSpaceOnUse">
<stop stop-color="#374051"/>
<stop offset="1"/>
</linearGradient>
<linearGradient id="paint5_linear_131_630" x1="112.084" y1="318.954" x2="71.1722" y2="365.96" gradientUnits="userSpaceOnUse">
<stop stop-color="#374051"/>
<stop offset="1"/>
</linearGradient>
<linearGradient id="paint6_linear_131_630" x1="104.007" y1="303.771" x2="67.2691" y2="349.097" gradientUnits="userSpaceOnUse">
<stop stop-color="#374051"/>
<stop offset="1"/>
</linearGradient>
<linearGradient id="paint7_linear_131_630" x1="121.302" y1="286.476" x2="84.5643" y2="331.801" gradientUnits="userSpaceOnUse">
<stop stop-color="#374051"/>
<stop offset="1"/>
</linearGradient>
<linearGradient id="paint8_linear_131_630" x1="23.1384" y1="301.368" x2="28.6582" y2="361.092" gradientUnits="userSpaceOnUse">
<stop stop-color="#374051"/>
<stop offset="1"/>
</linearGradient>
<linearGradient id="paint9_linear_131_630" x1="112.084" y1="265.339" x2="71.1722" y2="312.344" gradientUnits="userSpaceOnUse">
<stop stop-color="#374051"/>
<stop offset="1"/>
</linearGradient>
<linearGradient id="paint10_linear_131_630" x1="99.977" y1="250.156" x2="63.4321" y2="296.343" gradientUnits="userSpaceOnUse">
<stop stop-color="#374051"/>
<stop offset="1"/>
</linearGradient>
<linearGradient id="paint11_linear_131_630" x1="360.189" y1="235.518" x2="440.98" y2="366.702" gradientUnits="userSpaceOnUse">
<stop stop-color="#374051"/>
<stop offset="1"/>
</linearGradient>
</defs>
</svg>
