<svg width="130" height="45" viewBox="0 0 130 45" fill="none" xmlns="http://www.w3.org/2000/svg">
<path d="M105.25 33.4247C106.882 33.4247 108.478 32.9632 109.835 32.0988C111.193 31.2343 112.251 30.0056 112.875 28.568C113.5 27.1305 113.664 25.5486 113.345 24.0225C113.027 22.4964 112.241 21.0946 111.086 19.9943C109.932 18.8941 108.461 18.1448 106.86 17.8412C105.259 17.5377 103.599 17.6935 102.091 18.2889C100.583 18.8844 99.2941 19.8928 98.3871 21.1865C97.4802 22.4803 96.9961 24.0014 96.9961 25.5574C97.0017 27.6423 97.8731 29.6402 99.4198 31.1145C100.966 32.5887 103.063 33.4193 105.25 33.4247ZM105.25 21.7044C106.054 21.7044 106.841 21.9321 107.51 22.3586C108.178 22.7851 108.699 23.3912 109.006 24.1001C109.313 24.8089 109.392 25.5887 109.234 26.3406C109.075 27.0925 108.686 27.7825 108.116 28.3234C107.545 28.8642 106.819 29.2315 106.03 29.3787C105.24 29.5258 104.422 29.4463 103.68 29.15C102.938 28.8538 102.305 28.3542 101.861 27.7146C101.417 27.075 101.182 26.3242 101.186 25.5574C101.192 24.5336 101.623 23.5537 102.384 22.8317C103.146 22.1097 104.176 21.7044 105.25 21.7044Z" fill="white"/>
<path fill-rule="evenodd" clip-rule="evenodd" d="M0 7.45593H4.1269L12.3807 7.45593L12.3807 11.3896L4.1269 11.3896L4.1269 40.892H14.4442C17.1253 40.892 19.4551 39.4584 20.6361 37.3517H24.7614C22.9508 41.7285 18.4745 44.8256 13.2394 44.8256H4.1269H0V40.892V11.3896V7.45593Z" fill="white"/>
<path fill-rule="evenodd" clip-rule="evenodd" d="M53.6512 3.93365C50.9701 3.93365 48.6403 5.36716 47.4593 7.47393L43.334 7.47393C45.1446 3.09711 49.6208 -4.36238e-07 54.856 0L57.7781 1.10323e-06H68.0954H125.872L129.999 7.1055e-06V3.93365V29.5024V33.436H125.872H117.618V29.5024H125.872V3.93365L68.0954 3.93365L53.6512 3.93365Z" fill="white"/>
<path fill-rule="evenodd" clip-rule="evenodd" d="M57.7947 32.3707C56.5428 33.0596 55.1198 33.4247 53.6679 33.4247C51.4805 33.4193 49.3844 32.5888 47.8377 31.1145C46.291 29.6402 45.4196 27.6423 45.4141 25.5574C45.4141 24.0014 45.8981 22.4803 46.8051 21.1865C47.712 19.8928 49.0011 18.8844 50.5093 18.2889C52.0174 17.6935 53.677 17.5377 55.2781 17.8412C56.1679 18.0099 57.0174 18.3163 57.7947 18.7441V17.6901H61.9216V33.4247H57.7947V32.3707ZM55.9275 22.3586C55.2589 21.9321 54.4724 21.7044 53.6679 21.7044C52.5938 21.7044 51.5635 22.1097 50.802 22.8317C50.0406 23.5537 49.61 24.5336 49.6045 25.5574C49.6003 26.3242 49.835 27.075 50.2789 27.7146C50.7229 28.3542 51.356 28.8538 52.0981 29.15C52.8403 29.4463 53.6579 29.5258 54.4475 29.3787C55.2372 29.2315 55.9631 28.8643 56.5335 28.3234C57.1039 27.7825 57.493 27.0925 57.6516 26.3406C57.8101 25.5887 57.7309 24.8089 57.4239 24.1001C57.117 23.3912 56.5962 22.7851 55.9275 22.3586Z" fill="white"/>
<path d="M47.4617 33.4226L36.7622 22.4289L46.8085 11.3942L41.2938 11.3942L33.0175 20.0864V11.3942H28.8906V33.4226H33.0175V24.6688L42.1192 33.4226H47.4617Z" fill="white"/>
<path fill-rule="evenodd" clip-rule="evenodd" d="M24.7498 11.3942H20.6229V18.742C19.8455 18.3143 18.996 18.0079 18.1062 17.8392C16.5051 17.5356 14.8456 17.6914 13.3374 18.2869C11.8292 18.8823 10.5401 19.8907 9.63321 21.1845C8.72627 22.4782 8.24219 23.9993 8.24219 25.5553C8.24777 27.6402 9.11917 29.6382 10.6658 31.1124C12.2125 32.5867 14.3087 33.4173 16.496 33.4226C17.9479 33.4226 19.3709 33.0576 20.6229 32.3686V33.4226H24.7498V11.3942ZM18.7557 22.3565C18.087 21.93 17.3005 21.7024 16.496 21.7023C15.422 21.7023 14.3916 22.1076 13.6302 22.8296C12.8687 23.5516 12.4382 24.5316 12.4326 25.5553C12.4284 26.3222 12.6631 27.073 13.1071 27.7126C13.551 28.3522 14.1842 28.8517 14.9263 29.148C15.6684 29.4442 16.4861 29.5238 17.2757 29.3766C18.0653 29.2295 18.7913 28.8622 19.3617 28.3213C19.9321 27.7805 20.3212 27.0904 20.4797 26.3385C20.6382 25.5867 20.559 24.8069 20.2521 24.098C19.9451 23.3891 19.4243 22.783 18.7557 22.3565Z" fill="white"/>
<path fill-rule="evenodd" clip-rule="evenodd" d="M64.791 25.5574V17.6901H68.9007V18.7441C69.2103 18.573 69.5323 18.4208 69.865 18.2889C71.3669 17.6935 73.0195 17.5377 74.614 17.8412C76.2084 18.1448 77.6729 18.8941 78.8224 19.9943L75.8611 22.8288C75.6781 22.6548 75.4772 22.4972 75.2607 22.3586C74.5948 21.9321 73.8117 21.7044 73.0104 21.7044C71.9409 21.7044 70.9148 22.1097 70.1566 22.8317C69.3985 23.5535 68.9066 24.5331 68.9007 25.5564V33.4247H64.791V25.5574Z" fill="white"/>
<path fill-rule="evenodd" clip-rule="evenodd" d="M90.7574 32.3974C89.5174 33.0691 88.1126 33.4247 86.6796 33.4247C84.4923 33.4193 82.3961 32.5888 80.8494 31.1145C79.3028 29.6403 78.4314 27.6423 78.4258 25.5574C78.4258 24.0014 78.9099 22.4803 79.8168 21.1865C80.7237 19.8928 82.0128 18.8844 83.521 18.2889C85.0292 17.6935 86.6887 17.5377 88.2898 17.8412C89.1796 18.0099 90.0291 18.3163 90.8065 18.7441V17.6901H94.9334V31.8512C94.9334 33.4072 94.4493 34.9283 93.5423 36.222C92.6354 37.5158 91.3463 38.5242 89.8382 39.1196C88.33 39.7151 86.6704 39.8709 85.0693 39.5673C83.4683 39.2638 81.9976 38.5145 80.8433 37.4142L83.8169 34.5798C84.0008 34.7538 84.2025 34.9114 84.4199 35.05C85.0886 35.4765 85.875 35.7042 86.6796 35.7042C87.7536 35.7042 88.784 35.2989 89.5454 34.5769C90.17 33.9846 90.6147 33.2187 90.7574 32.3974ZM86.6796 21.7044C87.4841 21.7044 88.2706 21.9321 88.9393 22.3586C89.6079 22.7851 90.1287 23.3912 90.4357 24.1001C90.7426 24.809 90.8218 25.5887 90.6633 26.3406C90.5048 27.0925 90.1157 27.7825 89.5453 28.3234C88.9749 28.8643 88.2489 29.2315 87.4593 29.3787C86.6696 29.5259 85.852 29.4463 85.1099 29.15C84.3677 28.8538 83.7346 28.3542 83.2907 27.7146C82.8467 27.0751 82.612 26.3242 82.6162 25.5574C82.6218 24.5336 83.0523 23.5537 83.8138 22.8317C84.5752 22.1097 85.6056 21.7044 86.6796 21.7044Z" fill="white"/>
</svg>
