<svg width="22" height="22" viewBox="0 0 22 22" fill="none" xmlns="http://www.w3.org/2000/svg">
<path fill-rule="evenodd" clip-rule="evenodd" d="M11 21C16.5228 21 21 16.5228 21 11C21 5.47715 16.5228 1 11 1C5.47715 1 1 5.47715 1 11C1 16.5228 5.47715 21 11 21Z" stroke="white"/>
<path fill-rule="evenodd" clip-rule="evenodd" d="M11 20C11 20 15 16.7273 15 11C15 5.27273 11 2 11 2C11 2 7 5.27273 7 11C7 16.7273 11 20 11 20Z" stroke="white"/>
<path d="M1.5 8H20.5" stroke="white" stroke-linecap="round"/>
<path d="M1.5 14H20.5" stroke="white" stroke-linecap="round"/>
</svg>
